<svg version="1.1" xmlns="http://www.w3.org/2000/svg" xmlns:xlink="http://www.w3.org/1999/xlink" stroke-linecap="round" stroke-linejoin="round" stroke-width="0" fill-rule="evenodd" clip-rule="evenodd" id="NT-YIytG-sXDfZJ7eM0S_top" viewBox="0 0 22860 63500" width="22.86mm" height="63.5mm" class="w-100 h-100"><defs><style>.NT-YIytG-sXDfZJ7eM0S_fr4 {color: #666666;}
.NT-YIytG-sXDfZJ7eM0S_cu {color: #cccccc;}
.NT-YIytG-sXDfZJ7eM0S_cf {color: #f5f5f5;}
.NT-YIytG-sXDfZJ7eM0S_sm {color: #000064; opacity: 0.75;}
.NT-YIytG-sXDfZJ7eM0S_ss {color: #ffffff;}
.NT-YIytG-sXDfZJ7eM0S_sp {color: #999999;}
.NT-YIytG-sXDfZJ7eM0S_out {color: #000000;}</style><rect x="-15494" y="-254" width="30988" height="508" id="WnY9E8s45zi9oz1maO10_pad-15"/><rect x="-9200" y="-800" width="18400" height="1600" id="WnY9E8s45zi9oz1maO10_pad-16"/><rect x="-600" y="-700" width="1200" height="1400" id="bcHsDVeZ9R0q2wfDsqM2_pad-10"/><rect x="-650" y="-800" width="1300" height="1600" id="bcHsDVeZ9R0q2wfDsqM2_pad-11"/><rect x="-2000" y="-2000" width="4000" height="4000" id="bcHsDVeZ9R0q2wfDsqM2_pad-12"/><rect x="-850" y="-1750" width="1700" height="3500" id="bcHsDVeZ9R0q2wfDsqM2_pad-13"/><rect x="-650.8" y="-750.8" width="1301.6" height="1501.6" id="d-6raRBG5NyhxatJfz0l_pad-10"/><rect x="-700.8" y="-850.8" width="1401.6" height="1701.6" id="d-6raRBG5NyhxatJfz0l_pad-11"/><rect x="-2050.8" y="-2050.8" width="4101.6" height="4101.6" id="d-6raRBG5NyhxatJfz0l_pad-12"/><rect x="-900.8" y="-1800.8" width="1801.6" height="3601.6" id="d-6raRBG5NyhxatJfz0l_pad-13"/><mask id="grhUJlz_NqmwATT0eZcJ_clear-1" fill="#000" stroke="#000"><g><rect x="254.1" y="254.1" width="22351.8" height="62991.8" fill="#fff"/><path d="M 7421.2 28730.1 7421.2 28730.1 7140.1 29011.2 7140.1 29408.8 7421.2 29689.9 7755.8 29689.9 7757 29690.1 7758.3 29689.9 7766.7 29692.1 7775.3 29693.8 7776.3 29694.5 7777.5 29694.9 7791.1 29704.5 9135.9 31049.3 9136.6 31050.4 9137.6 31051.1 9142.1 31058.6 9146.9 31065.9 9147.1 31067.1 9147.8 31068.2 9150.5 31084.6 9150.5 34702.2 9239.8 34791.5 13366.2 34791.5 13455.5 34702.2 13455.5 30575.8 13366.2 30486.5 9240.6 30486.5 9239.4 30486.3 9238.1 30486.5 9229.7 30484.3 9221.1 30482.6 9220.1 30481.9 9218.9 30481.5 9205.3 30471.9 8114.5 29381.1 8113.8 29380 8112.8 29379.3 8108.3 29371.8 8103.5 29364.5 8103.3 29363.3 8102.6 29362.2 8099.9 29345.8 8099.9 29011.2 7818.8 28730.1 7421.2 28730.1"/></g></mask><mask id="grhUJlz_NqmwATT0eZcJ_clear-2" fill="#000" stroke="#000"><g><rect x="254.1" y="254.1" width="22351.8" height="62991.8" fill="#fff"/><path d="M 11402.9 58959.9 11402.9 58959.9 11402.9 61114.1 13557.1 61114.1 13557.1 59180.6 13539.8 59115.9 13506.3 59058 13459 59010.7 13401.1 58977.2 13336.4 58959.9 11402.9 58959.9"/></g></mask><mask id="grhUJlz_NqmwATT0eZcJ_clear-3" fill="#000" stroke="#000"><g><rect x="254.1" y="254.1" width="22351.8" height="62991.8" fill="#fff"/><path d="M 9269.6 58959.9 9269.6 58959.9 9204.9 58977.2 9147 59010.7 9099.7 59058 9066.2 59115.9 9048.9 59180.6 9048.9 61114.1 11203.1 61114.1 11203.1 58959.9 9269.6 58959.9"/></g></mask><rect x="-600" y="-700" width="1200" height="1400" id="grhUJlz_NqmwATT0eZcJ_pad-10"/><rect x="-650" y="-800" width="1300" height="1600" id="grhUJlz_NqmwATT0eZcJ_pad-11"/><rect x="-2000" y="-2000" width="4000" height="4000" id="grhUJlz_NqmwATT0eZcJ_pad-12"/><rect x="-850" y="-1750" width="1700" height="3500" id="grhUJlz_NqmwATT0eZcJ_pad-13"/><circle cx="0" cy="0" r="327.4" id="grhUJlz_NqmwATT0eZcJ_pad-15"/><circle cx="0" cy="0" r="304.8" id="grhUJlz_NqmwATT0eZcJ_pad-16"/><circle cx="0" cy="0" r="175" id="BUyTxGn8UVGgzMgjH6oc_pad-1"/><circle cx="0" cy="0" r="152.5" id="BUyTxGn8UVGgzMgjH6oc_pad-2"/><g id="NT-YIytG-sXDfZJ7eM0S_top_silkscreen"><path d="M 12660 25670 14060 25670 14060 27670 12660 27670 M 10660 25670 9260 25670 9260 27670 10660 27670 M 11360 26670 11360 25970 M 11360 26670 11360 27370 M 11360 26670 11960 26070 11960 27270 11360 26670" fill="none" stroke-width="203.2"/><path d="M 8966.2 26093 8178.8 26093 8178.8 26311.7 8179 26321 8179.6 26330.2 8180.6 26339.5 8181.9 26348.7 8183.7 26357.8 8185.9 26366.8 8188.4 26375.7 8191.3 26384.6 8194.6 26393.2 8198.2 26401.8 8202.2 26410.2 8206.6 26418.4 8211.3 26426.4 8216.3 26434.2 8221.7 26441.7 8227.3 26449.1 8233.3 26456.2 8239.6 26463 8246.2 26469.6 8253 26475.9 8260.1 26481.9 8267.5 26487.5 8275 26492.9 8282.8 26497.9 8290.8 26502.6 8299 26507 8307.4 26511 8316 26514.6 8324.6 26517.9 8333.5 26520.8 8342.4 26523.3 8351.4 26525.5 8360.5 26527.3 8369.7 26528.6 8379 26529.6 8388.2 26530.2 8397.5 26530.4 8747.5 26530.4 8756.8 26530.2 8766 26529.6 8775.3 26528.6 8784.5 26527.3 8793.6 26525.5 8802.6 26523.3 8811.5 26520.8 8820.4 26517.9 8829 26514.6 8837.6 26511 8846 26507 8854.2 26502.6 8862.2 26497.9 8870 26492.9 8877.5 26487.5 8884.9 26481.9 8892 26475.9 8898.8 26469.6 8905.4 26463 8911.7 26456.2 8917.7 26449.1 8923.3 26441.7 8928.7 26434.2 8933.7 26426.4 8938.4 26418.4 8942.8 26410.2 8946.8 26401.8 8950.4 26393.2 8953.7 26384.6 8956.6 26375.7 8959.1 26366.8 8961.3 26357.8 8963.1 26348.7 8964.4 26339.5 8965.4 26330.2 8966 26321 8966.2 26311.7 8966.2 26093 M 8353.8 26919.8 8178.8 27138.5 8966.2 27138.5 M 8966.2 26919.8 8966.2 27357.2" fill="none" stroke-width="101.6"/><path d="M 10510.4 28702 10510.4 29527.5 M 10510.4 28702 10510.6 28690.9 10511.2 28679.9 10512.1 28668.8 10513.5 28657.8 10515.2 28646.9 10517.3 28636 10519.8 28625.2 10522.7 28614.5 10525.9 28603.9 10529.5 28593.4 10533.5 28583.1 10537.8 28572.9 10542.5 28562.8 10547.6 28552.9 10552.9 28543.3 10558.6 28533.8 10564.7 28524.5 10571 28515.4 10577.7 28506.5 10584.7 28497.9 10592 28489.6 10599.5 28481.4 10607.3 28473.6 10615.5 28466.1 10623.8 28458.8 10632.4 28451.8 10641.3 28445.1 10650.4 28438.8 10659.7 28432.7 10669.2 28427 10678.8 28421.7 10688.7 28416.6 10698.8 28411.9 10709 28407.6 10719.3 28403.6 10729.8 28400 10740.4 28396.8 10751.1 28393.9 10761.9 28391.4 10772.8 28389.3 10783.7 28387.6 10794.7 28386.2 10805.8 28385.3 10816.8 28384.7 10827.9 28384.5 10839 28384.7 10850 28385.3 10861.1 28386.2 10872.1 28387.6 10883 28389.3 10893.9 28391.4 10904.7 28393.9 10915.4 28396.8 10926 28400 10936.5 28403.6 10946.8 28407.6 10957 28411.9 10967.1 28416.6 10977 28421.7 10986.6 28427 10996.1 28432.7 11005.4 28438.8 11014.5 28445.1 11023.4 28451.8 11032 28458.8 11040.3 28466.1 11048.5 28473.6 11056.3 28481.4 11063.8 28489.6 11071.1 28497.9 11078.1 28506.5 11084.8 28515.4 11091.1 28524.5 11097.2 28533.8 11102.9 28543.2 11108.2 28552.9 11113.3 28562.8 11118 28572.9 11122.3 28583.1 11126.3 28593.4 11129.9 28603.9 11133.1 28614.5 11136 28625.2 11138.5 28636 11140.6 28646.9 11142.3 28657.8 11143.7 28668.8 11144.6 28679.9 11145.2 28690.9 11145.4 28702 11145.4 29527.5 M 11723.5 29146.5 11723.5 28003.5 M 11723.5 29146.5 12041 29146.5 12049.5 29146.3 12058.1 29145.7 12066.6 29144.8 12075 29143.4 12083.4 29141.7 12091.7 29139.6 12099.9 29137.2 12107.9 29134.4 12115.9 29131.2 12123.7 29127.6 12131.3 29123.8 12138.7 29119.5 12145.9 29115 12153 29110.1 12159.8 29104.9 12166.3 29099.5 12172.6 29093.7 12178.7 29087.6 12184.5 29081.3 12189.9 29074.8 12195.1 29068 12200 29060.9 12204.5 29053.7 12208.8 29046.3 12212.6 29038.7 12216.2 29030.9 12219.4 29022.9 12222.2 29014.9 12224.6 29006.7 12226.7 28998.4 12228.4 28990 12229.8 28981.6 12230.7 28973.1 12231.3 28964.5 12231.5 28956 12231.5 28575 12231.3 28566.5 12230.7 28557.9 12229.8 28549.4 12228.4 28541 12226.7 28532.6 12224.6 28524.3 12222.2 28516.1 12219.4 28508.1 12216.2 28500.1 12212.6 28492.3 12208.8 28484.7 12204.5 28477.3 12200 28470.1 12195.1 28463 12189.9 28456.2 12184.5 28449.7 12178.7 28443.4 12172.6 28437.3 12166.3 28431.5 12159.8 28426.1 12153 28420.9 12145.9 28416 12138.7 28411.5 12131.3 28407.2 12123.7 28403.4 12115.9 28399.8 12107.9 28396.6 12099.9 28393.8 12091.7 28391.4 12083.4 28389.3 12075 28387.6 12066.6 28386.2 12058.1 28385.3 12049.5 28384.7 12041 28384.5 11723.5 28384.5" fill="none" stroke-width="127"/><path d="M 12660 10430 14060 10430 14060 12430 12660 12430 M 10660 10430 9260 10430 9260 12430 10660 12430 M 11360 11430 11360 10730 M 11360 11430 11360 12130 M 11360 11430 11960 10830 11960 12030 11360 11430" fill="none" stroke-width="203.2"/><path d="M 8966.2 10853 8178.8 10853 8178.8 11071.7 8179 11081 8179.6 11090.2 8180.6 11099.5 8181.9 11108.7 8183.7 11117.8 8185.9 11126.8 8188.4 11135.7 8191.3 11144.6 8194.6 11153.2 8198.2 11161.8 8202.2 11170.2 8206.6 11178.4 8211.3 11186.4 8216.3 11194.2 8221.7 11201.7 8227.3 11209.1 8233.3 11216.2 8239.6 11223 8246.2 11229.6 8253 11235.9 8260.1 11241.9 8267.5 11247.5 8275 11252.9 8282.8 11257.9 8290.8 11262.6 8299 11267 8307.4 11271 8316 11274.6 8324.6 11277.9 8333.5 11280.8 8342.4 11283.3 8351.4 11285.5 8360.5 11287.3 8369.7 11288.6 8379 11289.6 8388.2 11290.2 8397.5 11290.4 8747.5 11290.4 8756.8 11290.2 8766 11289.6 8775.3 11288.6 8784.5 11287.3 8793.6 11285.5 8802.6 11283.3 8811.5 11280.8 8820.4 11277.9 8829 11274.6 8837.6 11271 8846 11267 8854.2 11262.6 8862.2 11257.9 8870 11252.9 8877.5 11247.5 8884.9 11241.9 8892 11235.9 8898.8 11229.6 8905.4 11223 8911.7 11216.2 8917.7 11209.1 8923.3 11201.7 8928.7 11194.2 8933.7 11186.4 8938.4 11178.4 8942.8 11170.2 8946.8 11161.8 8950.4 11153.2 8953.7 11144.6 8956.6 11135.7 8959.1 11126.8 8961.3 11117.8 8963.1 11108.7 8964.4 11099.5 8965.4 11090.2 8966 11081 8966.2 11071.7 8966.2 10853 M 8178.8 11920.4 8179 11929 8179.5 11937.6 8180.5 11946.1 8181.8 11954.6 8183.5 11963 8185.5 11971.4 8187.9 11979.6 8190.7 11987.7 8193.8 11995.8 8197.2 12003.6 8201 12011.3 8205.2 12018.9 8209.6 12026.2 8214.4 12033.3 8219.5 12040.3 8224.9 12047 8230.5 12053.4 8236.5 12059.6 8242.7 12065.6 8249.1 12071.2 8255.8 12076.6 8262.8 12081.7 8269.9 12086.5 8277.3 12090.9 8284.8 12095.1 8292.5 12098.9 8300.3 12102.3 8308.4 12105.4 8316.5 12108.2 8324.7 12110.6 8333.1 12112.6 8341.5 12114.3 8350 12115.6 8358.5 12116.6 8367.1 12117.1 8375.7 12117.3 M 8178.8 11920.4 8179 11910.5 8179.6 11900.5 8180.6 11890.7 8181.9 11880.8 8183.7 11871 8185.8 11861.3 8188.3 11851.7 8191.2 11842.2 8194.5 11832.8 8198.1 11823.5 8202.1 11814.4 8206.4 11805.5 8211.1 11796.7 8216.1 11788.2 8221.5 11779.8 8227.2 11771.6 8233.2 11763.7 8239.5 11756 8246.1 11748.6 8253 11741.5 8260.1 11734.6 8267.6 11728 8275.3 11721.7 8283.2 11715.7 8291.4 11710 8299.7 11704.7 8308.3 11699.6 8317.1 11695 8326 11690.6 8335.1 11686.7 8344.4 11683 8353.8 11679.8 M 8528.8 12051.6 8522.4 12058 8515.8 12064.1 8508.9 12069.9 8501.8 12075.4 8494.5 12080.7 8486.9 12085.6 8479.2 12090.1 8471.2 12094.4 8463.1 12098.3 8454.8 12101.8 8446.4 12105 8437.8 12107.9 8429.2 12110.3 8420.4 12112.4 8411.6 12114.1 8402.7 12115.5 8393.7 12116.4 8384.7 12117 8375.7 12117.2 M 8528.8 12051.6 8966.2 11679.8 8966.2 12117.2" fill="none" stroke-width="101.6"/><path d="M 9577.2 13144.5 9577.2 14287.5 9894.7 14287.5 9905.8 14287.3 9916.8 14286.7 9927.9 14285.8 9938.9 14284.4 9949.8 14282.7 9960.7 14280.6 9971.5 14278.1 9982.2 14275.2 9992.8 14272 10003.3 14268.4 10013.6 14264.4 10023.8 14260.1 10033.9 14255.4 10043.8 14250.3 10053.5 14245 10062.9 14239.3 10072.2 14233.2 10081.3 14226.9 10090.2 14220.2 10098.8 14213.2 10107.1 14205.9 10115.3 14198.4 10123.1 14190.6 10130.6 14182.4 10137.9 14174.1 10144.9 14165.5 10151.6 14156.6 10157.9 14147.5 10164 14138.2 10169.7 14128.8 10175 14119.1 10180.1 14109.2 10184.8 14099.1 10189.1 14088.9 10193.1 14078.6 10196.7 14068.1 10199.9 14057.5 10202.8 14046.8 10205.3 14036 10207.4 14025.1 10209.1 14014.2 10210.5 14003.2 10211.4 13992.1 10212 13981.1 10212.2 13970 10212.2 13462 10212 13450.9 10211.4 13439.9 10210.5 13428.8 10209.1 13417.8 10207.4 13406.9 10205.3 13396 10202.8 13385.2 10199.9 13374.5 10196.7 13363.9 10193.1 13353.4 10189.1 13343.1 10184.8 13332.9 10180.1 13322.8 10175 13312.9 10169.7 13303.2 10164 13293.8 10157.9 13284.5 10151.6 13275.4 10144.9 13266.5 10137.9 13257.9 10130.6 13249.6 10123.1 13241.4 10115.3 13233.6 10107.1 13226.1 10098.8 13218.8 10090.2 13211.8 10081.3 13205.1 10072.2 13198.8 10062.9 13192.7 10053.4 13187 10043.8 13181.7 10033.9 13176.6 10023.8 13171.9 10013.6 13167.6 10003.3 13163.6 9992.8 13160 9982.2 13156.8 9971.5 13153.9 9960.7 13151.4 9949.8 13149.3 9938.9 13147.6 9927.9 13146.2 9916.8 13145.3 9905.8 13144.7 9894.7 13144.5 9577.2 13144.5 M 10745.6 13398.5 10745.6 13652.5 10745.8 13662.5 10746.4 13672.4 10747.4 13682.4 10748.7 13692.2 10750.5 13702.1 10752.6 13711.8 10755.1 13721.4 10758 13731 10761.3 13740.4 10764.9 13749.7 10768.9 13758.8 10773.3 13767.8 10778 13776.6 10783 13785.2 10788.4 13793.6 10794.1 13801.8 10800.1 13809.7 10806.5 13817.5 10813.1 13824.9 10820 13832.1 10827.2 13839 10834.6 13845.6 10842.4 13852 10850.3 13858 10858.5 13863.7 10866.9 13869.1 10875.5 13874.1 10884.3 13878.8 10893.3 13883.2 10902.4 13887.2 10911.7 13890.8 10921.1 13894.1 10930.7 13897 10940.3 13899.5 10950 13901.6 10959.9 13903.4 10969.7 13904.7 10979.7 13905.7 10989.6 13906.3 10999.6 13906.5 11009.6 13906.3 11019.5 13905.7 11029.5 13904.7 11039.3 13903.4 11049.2 13901.6 11058.9 13899.5 11068.5 13897 11078.1 13894.1 11087.5 13890.8 11096.8 13887.2 11105.9 13883.2 11114.9 13878.8 11123.7 13874.1 11132.3 13869.1 11140.7 13863.7 11148.9 13858 11156.8 13852 11164.6 13845.6 11172 13839 11179.2 13832.1 11186.1 13824.9 11192.7 13817.5 11199.1 13809.7 11205.1 13801.8 11210.8 13793.6 11216.2 13785.2 11221.2 13776.6 11225.9 13767.8 11230.3 13758.8 11234.3 13749.7 11237.9 13740.4 11241.2 13731 11244.1 13721.4 11246.6 13711.8 11248.7 13702.1 11250.5 13692.2 11251.8 13682.4 11252.8 13672.4 11253.4 13662.5 11253.6 13652.5 11253.6 13398.5 11253.4 13388.5 11252.8 13378.6 11251.8 13368.6 11250.5 13358.8 11248.7 13348.9 11246.6 13339.2 11244.1 13329.6 11241.2 13320 11237.9 13310.6 11234.3 13301.3 11230.3 13292.2 11225.9 13283.2 11221.2 13274.4 11216.2 13265.8 11210.8 13257.4 11205.1 13249.2 11199.1 13241.3 11192.7 13233.5 11186.1 13226.1 11179.2 13218.9 11172 13212 11164.6 13205.4 11156.8 13199 11148.9 13193 11140.7 13187.3 11132.3 13181.9 11123.7 13176.9 11114.9 13172.2 11105.9 13167.8 11096.8 13163.8 11087.5 13160.2 11078.1 13156.9 11068.5 13154 11058.9 13151.5 11049.2 13149.4 11039.3 13147.6 11029.5 13146.3 11019.5 13145.3 11009.6 13144.7 10999.6 13144.5 10989.6 13144.7 10979.7 13145.3 10969.7 13146.3 10959.9 13147.6 10950 13149.4 10940.3 13151.5 10930.7 13154 10921.1 13156.9 10911.7 13160.2 10902.4 13163.8 10893.3 13167.8 10884.3 13172.2 10875.5 13176.9 10866.9 13181.9 10858.5 13187.3 10850.3 13193 10842.4 13199 10834.6 13205.4 10827.2 13212 10820 13218.9 10813.1 13226.1 10806.5 13233.5 10800.1 13241.3 10794.1 13249.2 10788.4 13257.4 10783 13265.8 10778 13274.4 10773.3 13283.2 10768.9 13292.2 10764.9 13301.3 10761.3 13310.6 10758 13320 10755.1 13329.6 10752.6 13339.2 10750.5 13348.9 10748.7 13358.8 10747.4 13368.6 10746.4 13378.6 10745.8 13388.5 10745.6 13398.5 M 11723.5 13906.5 11914 13144.5 12104.5 13652.5 12295 13144.5 12485.5 13906.5 M 12993.5 13906.5 12993.5 13144.5 M 12993.5 13906.5 13311 13906.5 13319.5 13906.3 13328.1 13905.7 13336.6 13904.8 13345 13903.4 13353.4 13901.7 13361.7 13899.6 13369.9 13897.2 13377.9 13894.4 13385.9 13891.2 13393.7 13887.6 13401.3 13883.8 13408.7 13879.5 13415.9 13875 13423 13870.1 13429.8 13864.9 13436.3 13859.5 13442.6 13853.7 13448.7 13847.6 13454.5 13841.3 13459.9 13834.8 13465.1 13828 13470 13820.9 13474.5 13813.7 13478.8 13806.3 13482.6 13798.7 13486.2 13790.9 13489.4 13782.9 13492.2 13774.9 13494.6 13766.7 13496.7 13758.4 13498.4 13750 13499.8 13741.6 13500.7 13733.1 13501.3 13724.5 13501.5 13716 13501.5 13144.5" fill="none" stroke-width="127"/><path d="M 6440 18050 5040 18050 M 6440 18050 6440 20050 5040 20050 M 3040 18050 1640 18050 1640 20050 3040 20050 M 3740 19050 3740 18350 M 3740 19050 3740 19750 M 3740 19050 4340 18450 4340 19650 3740 19050" fill="none" stroke-width="203.2"/><path d="M 1346.2 18473 558.8 18473 558.8 18691.7 559 18701 559.6 18710.2 560.6 18719.5 561.9 18728.7 563.7 18737.8 565.9 18746.8 568.4 18755.7 571.3 18764.6 574.6 18773.2 578.2 18781.8 582.2 18790.2 586.6 18798.4 591.3 18806.4 596.3 18814.2 601.7 18821.7 607.3 18829.1 613.3 18836.2 619.6 18843 626.2 18849.6 633 18855.9 640.1 18861.9 647.5 18867.5 655 18872.9 662.8 18877.9 670.8 18882.6 679 18887 687.4 18891 696 18894.6 704.6 18897.9 713.5 18900.8 722.4 18903.3 731.4 18905.5 740.5 18907.3 749.7 18908.6 759 18909.6 768.2 18910.2 777.5 18910.4 1127.5 18910.4 1136.8 18910.2 1146 18909.6 1155.3 18908.6 1164.5 18907.3 1173.6 18905.5 1182.6 18903.3 1191.5 18900.8 1200.4 18897.9 1209 18894.6 1217.6 18891 1226 18887 1234.2 18882.6 1242.2 18877.9 1250 18872.9 1257.5 18867.5 1264.9 18861.9 1272 18855.9 1278.8 18849.6 1285.4 18843 1291.7 18836.2 1297.7 18829.1 1303.3 18821.7 1308.7 18814.2 1313.7 18806.4 1318.4 18798.4 1322.8 18790.2 1326.8 18781.8 1330.4 18773.2 1333.7 18764.6 1336.6 18755.7 1339.1 18746.8 1341.3 18737.8 1343.1 18728.7 1344.4 18719.5 1345.4 18710.2 1346 18701 1346.2 18691.7 1346.2 18473 M 1346.2 19299.8 1346.2 19518.5 1346 19527.8 1345.4 19537 1344.4 19546.3 1343.1 19555.5 1341.3 19564.6 1339.1 19573.6 1336.6 19582.5 1333.7 19591.4 1330.4 19600 1326.8 19608.6 1322.8 19617 1318.4 19625.2 1313.7 19633.2 1308.7 19641 1303.3 19648.5 1297.7 19655.9 1291.7 19663 1285.4 19669.8 1278.8 19676.4 1272 19682.7 1264.9 19688.7 1257.5 19694.3 1250 19699.7 1242.2 19704.7 1234.2 19709.4 1226 19713.8 1217.6 19717.8 1209 19721.4 1200.4 19724.7 1191.5 19727.6 1182.6 19730.1 1173.6 19732.3 1164.5 19734.1 1155.3 19735.4 1146 19736.4 1136.8 19737 1127.5 19737.2 1118.2 19737 1109 19736.4 1099.7 19735.4 1090.5 19734.1 1081.4 19732.3 1072.4 19730.1 1063.5 19727.6 1054.6 19724.7 1046 19721.4 1037.4 19717.8 1029 19713.8 1020.8 19709.4 1012.8 19704.7 1005 19699.7 997.5 19694.3 990.1 19688.7 983 19682.7 976.2 19676.4 969.6 19669.8 963.3 19663 957.3 19655.9 951.7 19648.5 946.3 19641 941.3 19633.2 936.6 19625.2 932.2 19617 928.2 19608.6 924.6 19600 921.3 19591.4 918.4 19582.5 915.9 19573.6 913.7 19564.6 911.9 19555.5 910.6 19546.3 909.6 19537 909 19527.8 908.8 19518.5 M 558.8 19562.2 558.8 19299.8 M 558.8 19562.2 559 19570.4 559.6 19578.6 560.5 19586.7 561.9 19594.8 563.6 19602.9 565.7 19610.8 568.1 19618.6 571 19626.3 574.2 19633.9 577.7 19641.3 581.6 19648.5 585.8 19655.6 590.3 19662.4 595.2 19669 600.3 19675.4 605.8 19681.5 611.5 19687.4 617.5 19693 623.8 19698.3 630.3 19703.3 637 19708 643.9 19712.4 651.1 19716.4 658.4 19720.1 665.9 19723.5 673.5 19726.5 681.3 19729.1 689.2 19731.4 697.1 19733.3 705.2 19734.8 713.3 19736 721.5 19736.8 729.7 19737.2 737.9 19737.2 746.1 19736.8 754.3 19736 762.4 19734.8 770.5 19733.3 778.4 19731.4 786.3 19729.1 794.1 19726.5 801.7 19723.5 809.2 19720.1 816.5 19716.4 823.7 19712.4 830.6 19708 837.3 19703.3 843.8 19698.3 850.1 19693 856.1 19687.4 861.8 19681.5 867.3 19675.4 872.4 19669 877.3 19662.4 881.8 19655.6 886 19648.5 889.9 19641.3 893.4 19633.9 896.6 19626.3 899.5 19618.6 901.9 19610.8 904 19602.9 905.7 19594.8 907.1 19586.7 908 19578.6 908.6 19570.4 908.8 19562.2 908.8 19387.2" fill="none" stroke-width="101.6"/><path d="M 3024.2 20764.5 3024.2 21907.5 M 3024.2 20764.5 3532.2 20764.5 M 4152 20764.5 4469.5 20764.5 M 4152 20764.5 4143.5 20764.7 4134.9 20765.3 4126.4 20766.2 4118 20767.6 4109.6 20769.3 4101.3 20771.4 4093.1 20773.8 4085.1 20776.6 4077.1 20779.8 4069.3 20783.4 4061.7 20787.2 4054.3 20791.5 4047.1 20796 4040 20800.9 4033.2 20806.1 4026.7 20811.5 4020.4 20817.3 4014.3 20823.4 4008.5 20829.7 4003.1 20836.2 3997.9 20843 3993 20850.1 3988.5 20857.3 3984.2 20864.7 3980.4 20872.3 3976.8 20880.1 3973.6 20888.1 3970.8 20896.1 3968.4 20904.3 3966.3 20912.6 3964.6 20921 3963.2 20929.4 3962.3 20937.9 3961.7 20946.5 3961.5 20955 3961.5 21272.5 3961.7 21282.5 3962.3 21292.4 3963.3 21302.4 3964.6 21312.2 3966.4 21322.1 3968.5 21331.8 3971 21341.4 3973.9 21351 3977.2 21360.4 3980.8 21369.7 3984.8 21378.8 3989.2 21387.8 3993.9 21396.6 3998.9 21405.2 4004.3 21413.6 4010 21421.8 4016 21429.7 4022.4 21437.5 4029 21444.9 4035.9 21452.1 4043.1 21459 4050.5 21465.6 4058.3 21472 4066.2 21478 4074.4 21483.7 4082.8 21489.1 4091.4 21494.1 4100.2 21498.8 4109.2 21503.2 4118.3 21507.2 4127.6 21510.8 4137 21514.1 4146.6 21517 4156.2 21519.5 4165.9 21521.6 4175.8 21523.4 4185.6 21524.7 4195.6 21525.7 4205.5 21526.3 4215.5 21526.5 4225.5 21526.3 4235.4 21525.7 4245.4 21524.7 4255.2 21523.4 4265.1 21521.6 4274.8 21519.5 4284.4 21517 4294 21514.1 4303.4 21510.8 4312.7 21507.2 4321.8 21503.2 4330.8 21498.8 4339.6 21494.1 4348.2 21489.1 4356.6 21483.7 4364.8 21478 4372.7 21472 4380.5 21465.6 4387.9 21459 4395.1 21452.1 4402 21444.9 4408.6 21437.5 4415 21429.7 4421 21421.8 4426.7 21413.6 4432.1 21405.2 4437.1 21396.6 4441.8 21387.8 4446.2 21378.8 4450.2 21369.7 4453.8 21360.4 4457.1 21351 4460 21341.4 4462.5 21331.8 4464.6 21322.1 4466.4 21312.2 4467.7 21302.4 4468.7 21292.4 4469.3 21282.5 4469.5 21272.5 4469.5 21145.5 3961.5 21145.5 M 5013.1 20764.5 5013.1 21717 5013.3 21725.5 5013.9 21734.1 5014.8 21742.6 5016.2 21751 5017.9 21759.4 5020 21767.7 5022.4 21775.9 5025.2 21783.9 5028.4 21791.9 5032 21799.7 5035.8 21807.3 5040.1 21814.7 5044.6 21821.9 5049.5 21829 5054.7 21835.8 5060.1 21842.3 5065.9 21848.6 5072 21854.7 5078.3 21860.5 5084.8 21865.9 5091.6 21871.1 5098.7 21876 5105.9 21880.5 5113.3 21884.8 5120.9 21888.6 5128.7 21892.2 5136.7 21895.4 5144.7 21898.2 5152.9 21900.6 5161.2 21902.7 5169.6 21904.4 5178 21905.8 5186.5 21906.7 5195.1 21907.3 5203.6 21907.5 5267.1 21907.5 M 5267.1 21526.5 4886.1 21526.5 M 5500.5 21526.5 5881.5 21526.5 M 5627.5 21907.5 5627.5 20955 5627.7 20946.5 5628.3 20937.9 5629.2 20929.4 5630.6 20921 5632.3 20912.6 5634.4 20904.3 5636.8 20896.1 5639.6 20888.1 5642.8 20880.1 5646.4 20872.3 5650.2 20864.7 5654.5 20857.3 5659 20850.1 5663.9 20843 5669.1 20836.2 5674.5 20829.7 5680.3 20823.4 5686.4 20817.3 5692.7 20811.5 5699.2 20806.1 5706 20800.9 5713.1 20796 5720.3 20791.5 5727.7 20787.2 5735.3 20783.4 5743.1 20779.8 5751.1 20776.6 5759.1 20773.8 5767.3 20771.4 5775.6 20769.3 5784 20767.6 5792.4 20766.2 5800.9 20765.3 5809.5 20764.7 5818 20764.5 5881.5 20764.5" fill="none" stroke-width="127"/><path d="M 20280 18050 21680 18050 21680 20050 20280 20050 M 18280 18050 16880 18050 16880 20050 18280 20050 M 18980 19050 18980 18350 M 18980 19050 18980 19750 M 18980 19050 19580 18450 19580 19650 18980 19050" fill="none" stroke-width="203.2"/><path d="M 16586.2 18473 15798.8 18473 15798.8 18691.7 15799 18701 15799.6 18710.2 15800.6 18719.5 15801.9 18728.7 15803.7 18737.8 15805.9 18746.8 15808.4 18755.7 15811.3 18764.6 15814.6 18773.2 15818.2 18781.8 15822.2 18790.2 15826.6 18798.4 15831.3 18806.4 15836.3 18814.2 15841.7 18821.7 15847.3 18829.1 15853.3 18836.2 15859.6 18843 15866.2 18849.6 15873 18855.9 15880.1 18861.9 15887.5 18867.5 15895 18872.9 15902.8 18877.9 15910.8 18882.6 15919 18887 15927.4 18891 15936 18894.6 15944.6 18897.9 15953.5 18900.8 15962.4 18903.3 15971.4 18905.5 15980.5 18907.3 15989.7 18908.6 15999 18909.6 16008.2 18910.2 16017.5 18910.4 16367.5 18910.4 16376.8 18910.2 16386 18909.6 16395.3 18908.6 16404.5 18907.3 16413.6 18905.5 16422.6 18903.3 16431.5 18900.8 16440.4 18897.9 16449 18894.6 16457.6 18891 16466 18887 16474.2 18882.6 16482.2 18877.9 16490 18872.9 16497.5 18867.5 16504.9 18861.9 16512 18855.9 16518.8 18849.6 16525.4 18843 16531.7 18836.2 16537.7 18829.1 16543.3 18821.7 16548.7 18814.2 16553.7 18806.4 16558.4 18798.4 16562.8 18790.2 16566.8 18781.8 16570.4 18773.2 16573.7 18764.6 16576.6 18755.7 16579.1 18746.8 16581.3 18737.8 16583.1 18728.7 16584.4 18719.5 16585.4 18710.2 16586 18701 16586.2 18691.7 16586.2 18473 M 16411.2 19299.8 15798.8 19474.7 M 16411.2 19299.8 16411.2 19737.2 M 16236.2 19606 16586.2 19606" fill="none" stroke-width="101.6"/><path d="M 17165.1 20764.5 17165.1 21907.5 17482.6 21907.5 17493.7 21907.3 17504.7 21906.7 17515.8 21905.8 17526.8 21904.4 17537.7 21902.7 17548.6 21900.6 17559.4 21898.1 17570.1 21895.2 17580.7 21892 17591.2 21888.4 17601.5 21884.4 17611.7 21880.1 17621.8 21875.4 17631.7 21870.3 17641.4 21865 17650.8 21859.3 17660.1 21853.2 17669.2 21846.9 17678.1 21840.2 17686.7 21833.2 17695 21825.9 17703.2 21818.4 17711 21810.6 17718.5 21802.4 17725.8 21794.1 17732.8 21785.5 17739.5 21776.6 17745.8 21767.5 17751.9 21758.2 17757.6 21748.7 17762.9 21739.1 17768 21729.2 17772.7 21719.1 17777 21708.9 17781 21698.6 17784.6 21688.1 17787.8 21677.5 17790.7 21666.8 17793.2 21656 17795.3 21645.1 17797 21634.2 17798.4 21623.2 17799.3 21612.1 17799.9 21601.1 17800.1 21590 17799.9 21578.9 17799.3 21567.9 17798.4 21556.8 17797 21545.8 17795.3 21534.9 17793.2 21524 17790.7 21513.2 17787.8 21502.5 17784.6 21491.9 17781 21481.4 17777 21471.1 17772.7 21460.9 17768 21450.8 17762.9 21440.9 17757.6 21431.2 17751.9 21421.8 17745.8 21412.5 17739.5 21403.4 17732.8 21394.5 17725.8 21385.9 17718.5 21377.6 17711 21369.4 17703.2 21361.6 17695 21354.1 17686.7 21346.8 17678.1 21339.8 17669.2 21333.1 17660.1 21326.8 17650.8 21320.7 17641.3 21315 17631.7 21309.7 17621.8 21304.6 17611.7 21299.9 17601.5 21295.6 17591.2 21291.6 17580.7 21288 17570.1 21284.8 17559.4 21281.9 17548.6 21279.4 17537.7 21277.3 17526.8 21275.6 17515.8 21274.2 17504.7 21273.3 17493.7 21272.7 17482.6 21272.5 17165.1 21272.5 M 17546.1 21272.5 17800.1 20764.5 M 18274.4 20764.5 18274.4 21526.5 M 18242.6 21844 18242.6 21907.5 18306.1 21907.5 18306.1 21844 18242.6 21844 M 18928.2 20764.5 19245.7 20764.5 M 18928.2 20764.5 18919.7 20764.7 18911.1 20765.3 18902.6 20766.2 18894.2 20767.6 18885.8 20769.3 18877.5 20771.4 18869.3 20773.8 18861.3 20776.6 18853.3 20779.8 18845.5 20783.4 18837.9 20787.2 18830.5 20791.5 18823.3 20796 18816.2 20800.9 18809.4 20806.1 18802.9 20811.5 18796.6 20817.3 18790.5 20823.4 18784.7 20829.7 18779.3 20836.2 18774.1 20843 18769.2 20850.1 18764.7 20857.3 18760.4 20864.7 18756.6 20872.3 18753 20880.1 18749.8 20888.1 18747 20896.1 18744.6 20904.3 18742.5 20912.6 18740.8 20921 18739.4 20929.4 18738.5 20937.9 18737.9 20946.5 18737.7 20955 18737.7 21336 18737.9 21344.5 18738.5 21353.1 18739.4 21361.6 18740.8 21370 18742.5 21378.4 18744.6 21386.7 18747 21394.9 18749.8 21402.9 18753 21410.9 18756.6 21418.7 18760.4 21426.3 18764.7 21433.7 18769.2 21440.9 18774.1 21448 18779.3 21454.8 18784.7 21461.3 18790.5 21467.6 18796.6 21473.7 18802.9 21479.5 18809.4 21484.9 18816.2 21490.1 18823.3 21495 18830.5 21499.5 18837.9 21503.8 18845.5 21507.6 18853.3 21511.2 18861.3 21514.4 18869.3 21517.2 18877.5 21519.6 18885.8 21521.7 18894.2 21523.4 18902.6 21524.8 18911.1 21525.7 18919.7 21526.3 18928.2 21526.5 19245.7 21526.5 19245.7 20574 19245.5 20565.5 19244.9 20556.9 19244 20548.4 19242.6 20540 19240.9 20531.6 19238.8 20523.3 19236.4 20515.1 19233.6 20507.1 19230.4 20499.1 19226.8 20491.3 19223 20483.7 19218.7 20476.3 19214.2 20469.1 19209.3 20462 19204.1 20455.2 19198.7 20448.7 19192.9 20442.4 19186.8 20436.3 19180.5 20430.5 19174 20425.1 19167.2 20419.9 19160.1 20415 19152.9 20410.5 19145.5 20406.2 19137.9 20402.4 19130.1 20398.8 19122.1 20395.6 19114.1 20392.8 19105.9 20390.4 19097.6 20388.3 19089.2 20386.6 19080.8 20385.2 19072.3 20384.3 19063.7 20383.7 19055.2 20383.5 18801.2 20383.5 M 19811.1 20764.5 19811.1 21907.5 M 19811.1 21526.5 20128.6 21526.5 20137.1 21526.3 20145.7 21525.7 20154.2 21524.8 20162.6 21523.4 20171 21521.7 20179.3 21519.6 20187.5 21517.2 20195.5 21514.4 20203.5 21511.2 20211.3 21507.6 20218.9 21503.8 20226.3 21499.5 20233.5 21495 20240.6 21490.1 20247.4 21484.9 20253.9 21479.5 20260.2 21473.7 20266.3 21467.6 20272.1 21461.3 20277.5 21454.8 20282.7 21448 20287.6 21440.9 20292.1 21433.7 20296.4 21426.3 20300.2 21418.7 20303.8 21410.9 20307 21402.9 20309.8 21394.9 20312.2 21386.7 20314.3 21378.4 20316 21370 20317.4 21361.6 20318.3 21353.1 20318.9 21344.5 20319.1 21336 20319.1 20764.5 M 20740.5 21526.5 21121.5 21526.5 M 20867.5 21907.5 20867.5 20955 20867.7 20946.5 20868.3 20937.9 20869.2 20929.4 20870.6 20921 20872.3 20912.6 20874.4 20904.3 20876.8 20896.1 20879.6 20888.1 20882.8 20880.1 20886.4 20872.3 20890.2 20864.7 20894.5 20857.3 20899 20850.1 20903.9 20843 20909.1 20836.2 20914.5 20829.7 20920.3 20823.4 20926.4 20817.3 20932.7 20811.5 20939.2 20806.1 20946 20800.9 20953.1 20796 20960.3 20791.5 20967.7 20787.2 20975.3 20783.4 20983.1 20779.8 20991.1 20776.6 20999.1 20773.8 21007.3 20771.4 21015.6 20769.3 21024 20767.6 21032.4 20766.2 21040.9 20765.3 21049.5 20764.7 21058 20764.5 21121.5 20764.5" fill="none" stroke-width="127"/><path d="M 14060 18050 12660 18050 M 14060 18050 14060 20050 12660 20050 M 10660 18050 9260 18050 9260 20050 10660 20050 M 11360 19050 11360 18350 M 11360 19050 11360 19750 M 11360 19050 11960 18450 11960 19650 11360 19050" fill="none" stroke-width="203.2"/><path d="M 8966.2 18473 8178.8 18473 8178.8 18691.7 8179 18701 8179.6 18710.2 8180.6 18719.5 8181.9 18728.7 8183.7 18737.8 8185.9 18746.8 8188.4 18755.7 8191.3 18764.6 8194.6 18773.2 8198.2 18781.8 8202.2 18790.2 8206.6 18798.4 8211.3 18806.4 8216.3 18814.2 8221.7 18821.7 8227.3 18829.1 8233.3 18836.2 8239.6 18843 8246.2 18849.6 8253 18855.9 8260.1 18861.9 8267.5 18867.5 8275 18872.9 8282.8 18877.9 8290.8 18882.6 8299 18887 8307.4 18891 8316 18894.6 8324.6 18897.9 8333.5 18900.8 8342.4 18903.3 8351.4 18905.5 8360.5 18907.3 8369.7 18908.6 8379 18909.6 8388.2 18910.2 8397.5 18910.4 8747.5 18910.4 8756.8 18910.2 8766 18909.6 8775.3 18908.6 8784.5 18907.3 8793.6 18905.5 8802.6 18903.3 8811.5 18900.8 8820.4 18897.9 8829 18894.6 8837.6 18891 8846 18887 8854.2 18882.6 8862.2 18877.9 8870 18872.9 8877.5 18867.5 8884.9 18861.9 8892 18855.9 8898.8 18849.6 8905.4 18843 8911.7 18836.2 8917.7 18829.1 8923.3 18821.7 8928.7 18814.2 8933.7 18806.4 8938.4 18798.4 8942.8 18790.2 8946.8 18781.8 8950.4 18773.2 8953.7 18764.6 8956.6 18755.7 8959.1 18746.8 8961.3 18737.8 8963.1 18728.7 8964.4 18719.5 8965.4 18710.2 8966 18701 8966.2 18691.7 8966.2 18473 M 8266.3 19299.8 8178.8 19299.8 8178.8 19737.2 8966.2 19518.5" fill="none" stroke-width="101.6"/><path d="M 10798.9 20764.5 10798.9 21907.5 11306.9 21907.5 M 11306.9 21399.5 10798.9 21399.5 M 11723.5 21526.5 11723.5 20764.5 M 11691.8 21844 11691.8 21907.5 11755.3 21907.5 11755.3 21844 11691.8 21844 M 12239 21526.5 12239 20764.5 M 12239 21526.5 12620 21526.5 12620 21399.5 M 13184 20764.5 13501.5 20764.5 M 13184 20764.5 13175.5 20764.7 13166.9 20765.3 13158.4 20766.2 13150 20767.6 13141.6 20769.3 13133.3 20771.4 13125.1 20773.8 13117.1 20776.6 13109.1 20779.8 13101.3 20783.4 13093.7 20787.2 13086.3 20791.5 13079.1 20796 13072 20800.9 13065.2 20806.1 13058.7 20811.5 13052.4 20817.3 13046.3 20823.4 13040.5 20829.7 13035.1 20836.2 13029.9 20843 13025 20850.1 13020.5 20857.3 13016.2 20864.7 13012.4 20872.3 13008.8 20880.1 13005.6 20888.1 13002.8 20896.1 13000.4 20904.3 12998.3 20912.6 12996.6 20921 12995.2 20929.4 12994.3 20937.9 12993.7 20946.5 12993.5 20955 12993.5 21272.5 12993.7 21282.5 12994.3 21292.4 12995.3 21302.4 12996.6 21312.2 12998.4 21322.1 13000.5 21331.8 13003 21341.4 13005.9 21351 13009.2 21360.4 13012.8 21369.7 13016.8 21378.8 13021.2 21387.8 13025.9 21396.6 13030.9 21405.2 13036.3 21413.6 13042 21421.8 13048 21429.7 13054.4 21437.5 13061 21444.9 13067.9 21452.1 13075.1 21459 13082.5 21465.6 13090.3 21472 13098.2 21478 13106.4 21483.7 13114.8 21489.1 13123.4 21494.1 13132.2 21498.8 13141.2 21503.2 13150.3 21507.2 13159.6 21510.8 13169 21514.1 13178.6 21517 13188.2 21519.5 13197.9 21521.6 13207.8 21523.4 13217.6 21524.7 13227.6 21525.7 13237.5 21526.3 13247.5 21526.5 13257.5 21526.3 13267.4 21525.7 13277.4 21524.7 13287.2 21523.4 13297.1 21521.6 13306.8 21519.5 13316.4 21517 13326 21514.1 13335.4 21510.8 13344.7 21507.2 13353.8 21503.2 13362.8 21498.8 13371.6 21494.1 13380.2 21489.1 13388.6 21483.7 13396.8 21478 13404.7 21472 13412.5 21465.6 13419.9 21459 13427.1 21452.1 13434 21444.9 13440.6 21437.5 13447 21429.7 13453 21421.8 13458.7 21413.6 13464.1 21405.2 13469.1 21396.6 13473.8 21387.8 13478.2 21378.8 13482.2 21369.7 13485.8 21360.4 13489.1 21351 13492 21341.4 13494.5 21331.8 13496.6 21322.1 13498.4 21312.2 13499.7 21302.4 13500.7 21292.4 13501.3 21282.5 13501.5 21272.5 13501.5 21145.5 12993.5 21145.5" fill="none" stroke-width="127"/><path d="M 9486.9 23607.6 8674.1 23607.6 8674.1 23833.4 8674.3 23842.7 8674.9 23852 8675.8 23861.3 8677.2 23870.6 8678.9 23879.7 8681 23888.8 8683.5 23897.8 8686.3 23906.7 8689.5 23915.5 8693.1 23924.1 8697 23932.6 8701.3 23940.9 8705.9 23949 8710.9 23956.9 8716.1 23964.6 8721.7 23972.1 8727.6 23979.3 8733.8 23986.3 8740.2 23993.1 8747 23999.5 8754 24005.7 8761.2 24011.6 8768.7 24017.2 8776.4 24022.4 8784.3 24027.4 8792.4 24032 8800.7 24036.3 8809.2 24040.2 8817.8 24043.8 8826.6 24047 8835.5 24049.8 8844.5 24052.3 8853.6 24054.4 8862.7 24056.1 8872 24057.5 8881.3 24058.4 8890.6 24059 8899.9 24059.2 8909.2 24059 8918.5 24058.4 8927.8 24057.5 8937.1 24056.1 8946.2 24054.4 8955.3 24052.3 8964.3 24049.8 8973.2 24047 8982 24043.8 8990.6 24040.2 8999.1 24036.3 9007.4 24032 9015.5 24027.4 9023.4 24022.4 9031.1 24017.2 9038.6 24011.6 9045.8 24005.7 9052.8 23999.5 9059.6 23993.1 9066 23986.3 9072.2 23979.3 9078.1 23972.1 9083.7 23964.6 9088.9 23956.9 9093.9 23949 9098.5 23940.9 9102.8 23932.6 9106.7 23924.1 9110.3 23915.5 9113.5 23906.7 9116.3 23897.8 9118.8 23888.8 9120.9 23879.7 9122.6 23870.6 9124 23861.3 9124.9 23852 9125.5 23842.7 9125.7 23833.4 9125.7 23607.6 M 9125.7 23878.5 9486.9 24059.1 M 8854.7 24402.3 8674.1 24628.1 9486.9 24628.1 M 9486.9 24402.3 9486.9 24853.9 M 9232.9 8367.6 8420.1 8367.6 8420.1 8593.4 8420.3 8602.7 8420.9 8612 8421.8 8621.3 8423.2 8630.6 8424.9 8639.7 8427 8648.8 8429.5 8657.8 8432.3 8666.7 8435.5 8675.5 8439.1 8684.1 8443 8692.6 8447.3 8700.9 8451.9 8709 8456.9 8716.9 8462.1 8724.6 8467.7 8732.1 8473.6 8739.3 8479.8 8746.3 8486.2 8753.1 8493 8759.5 8500 8765.7 8507.2 8771.6 8514.7 8777.2 8522.4 8782.4 8530.3 8787.4 8538.4 8792 8546.7 8796.3 8555.2 8800.2 8563.8 8803.8 8572.6 8807 8581.5 8809.8 8590.5 8812.3 8599.6 8814.4 8608.7 8816.1 8618 8817.5 8627.3 8818.4 8636.6 8819 8645.9 8819.2 8655.2 8819 8664.5 8818.4 8673.8 8817.5 8683.1 8816.1 8692.2 8814.4 8701.3 8812.3 8710.3 8809.8 8719.2 8807 8728 8803.8 8736.6 8800.2 8745.1 8796.3 8753.4 8792 8761.5 8787.4 8769.4 8782.4 8777.1 8777.2 8784.6 8771.6 8791.8 8765.7 8798.8 8759.5 8805.6 8753.1 8812 8746.3 8818.2 8739.3 8824.1 8732.1 8829.7 8724.6 8834.9 8716.9 8839.9 8709 8844.5 8700.9 8848.8 8692.6 8852.7 8684.1 8856.3 8675.5 8859.5 8666.7 8862.3 8657.8 8864.8 8648.8 8866.9 8639.7 8868.6 8630.6 8870 8621.3 8870.9 8612 8871.5 8602.7 8871.7 8593.4 8871.7 8367.6 M 8871.7 8638.5 9232.9 8819.1 M 8623.3 9613.9 8614.4 9613.7 8605.6 9613.1 8596.8 9612.2 8588 9610.8 8579.3 9609.1 8570.7 9607 8562.2 9604.5 8553.8 9601.6 8545.5 9598.4 8537.4 9594.9 8529.5 9590.9 8521.7 9586.7 8514.1 9582.1 8506.7 9577.2 8499.6 9571.9 8492.7 9566.4 8486 9560.5 8479.6 9554.4 8473.5 9548 8467.6 9541.3 8462.1 9534.4 8456.8 9527.3 8451.9 9519.9 8447.3 9512.3 8443.1 9504.5 8439.1 9496.6 8435.6 9488.5 8432.4 9480.2 8429.5 9471.8 8427 9463.3 8424.9 9454.7 8423.2 9446 8421.8 9437.2 8420.9 9428.4 8420.3 9419.6 8420.1 9410.7 8420.3 9400.8 8420.9 9390.8 8421.8 9380.9 8423.1 9371.1 8424.8 9361.2 8426.9 9351.5 8429.3 9341.9 8432.1 9332.3 8435.3 9322.9 8438.8 9313.6 8442.7 9304.4 8446.9 9295.4 8451.5 9286.6 8456.4 9277.9 8461.6 9269.4 8467.2 9261.2 8473 9253.1 8479.2 9245.3 8485.6 9237.7 8492.3 9230.4 8499.3 9223.3 8506.6 9216.6 8514.1 9210 8521.9 9203.8 8529.9 9197.9 8538.1 9192.3 8546.5 9187 8555.2 9182 8564 9177.4 8572.9 9173.1 8582.1 9169.1 8591.4 9165.5 8600.8 9162.3 M 8781.4 9546.2 8774.8 9552.8 8768 9559.1 8760.9 9565.1 8753.5 9570.8 8746 9576.2 8738.2 9581.2 8730.1 9586 8721.9 9590.3 8713.5 9594.4 8705 9598 8696.3 9601.3 8687.5 9604.3 8678.5 9606.8 8669.5 9609 8660.3 9610.7 8651.1 9612.1 8641.9 9613.1 8632.6 9613.7 8623.3 9613.9 M 8781.3 9546.2 9232.9 9162.3 9232.9 9613.9 M 2247.9 15987.6 1435.1 15987.6 1435.1 16213.4 1435.3 16222.7 1435.9 16232 1436.8 16241.3 1438.2 16250.6 1439.9 16259.7 1442 16268.8 1444.5 16277.8 1447.3 16286.7 1450.5 16295.5 1454.1 16304.1 1458 16312.6 1462.3 16320.9 1466.9 16329 1471.9 16336.9 1477.1 16344.6 1482.7 16352.1 1488.6 16359.3 1494.8 16366.3 1501.2 16373.1 1508 16379.5 1515 16385.7 1522.2 16391.6 1529.7 16397.2 1537.4 16402.4 1545.3 16407.4 1553.4 16412 1561.7 16416.3 1570.2 16420.2 1578.8 16423.8 1587.6 16427 1596.5 16429.8 1605.5 16432.3 1614.6 16434.4 1623.7 16436.1 1633 16437.5 1642.3 16438.4 1651.6 16439 1660.9 16439.2 1670.2 16439 1679.5 16438.4 1688.8 16437.5 1698.1 16436.1 1707.2 16434.4 1716.3 16432.3 1725.3 16429.8 1734.2 16427 1743 16423.8 1751.6 16420.2 1760.1 16416.3 1768.4 16412 1776.5 16407.4 1784.4 16402.4 1792.1 16397.2 1799.6 16391.6 1806.8 16385.7 1813.8 16379.5 1820.6 16373.1 1827 16366.3 1833.2 16359.3 1839.1 16352.1 1844.7 16344.6 1849.9 16336.9 1854.9 16329 1859.5 16320.9 1863.8 16312.6 1867.7 16304.1 1871.3 16295.5 1874.5 16286.7 1877.3 16277.8 1879.8 16268.8 1881.9 16259.7 1883.6 16250.6 1885 16241.3 1885.9 16232 1886.5 16222.7 1886.7 16213.4 1886.7 15987.6 M 1886.7 16258.5 2247.9 16439.1 M 2247.9 16782.3 2247.9 17008.1 2247.7 17017.4 2247.1 17026.7 2246.2 17036 2244.8 17045.3 2243.1 17054.4 2241 17063.5 2238.5 17072.5 2235.7 17081.4 2232.5 17090.2 2228.9 17098.8 2225 17107.3 2220.7 17115.6 2216.1 17123.7 2211.1 17131.6 2205.9 17139.3 2200.3 17146.8 2194.4 17154 2188.2 17161 2181.8 17167.8 2175 17174.2 2168 17180.4 2160.8 17186.3 2153.3 17191.9 2145.6 17197.1 2137.7 17202.1 2129.6 17206.7 2121.3 17211 2112.8 17214.9 2104.2 17218.5 2095.4 17221.7 2086.5 17224.5 2077.5 17227 2068.4 17229.1 2059.3 17230.8 2050 17232.2 2040.7 17233.1 2031.4 17233.7 2022.1 17233.9 2012.8 17233.7 2003.5 17233.1 1994.2 17232.2 1984.9 17230.8 1975.8 17229.1 1966.7 17227 1957.7 17224.5 1948.8 17221.7 1940 17218.5 1931.4 17214.9 1922.9 17211 1914.6 17206.7 1906.5 17202.1 1898.6 17197.1 1890.9 17191.9 1883.4 17186.3 1876.2 17180.4 1869.2 17174.2 1862.4 17167.8 1856 17161 1849.8 17154 1843.9 17146.8 1838.3 17139.3 1833.1 17131.6 1828.1 17123.7 1823.5 17115.6 1819.2 17107.3 1815.3 17098.8 1811.7 17090.2 1808.5 17081.4 1805.7 17072.5 1803.2 17063.5 1801.1 17054.4 1799.4 17045.3 1798 17036 1797.1 17026.7 1796.5 17017.4 1796.3 17008.1 M 1435.1 17053.3 1435.1 16782.3 M 1435.1 17053.3 1435.3 17061.6 1435.9 17070 1436.8 17078.3 1438.2 17086.5 1439.9 17094.6 1442 17102.7 1444.5 17110.7 1447.3 17118.5 1450.5 17126.2 1454 17133.8 1457.9 17141.2 1462.2 17148.4 1466.7 17155.4 1471.6 17162.1 1476.8 17168.7 1482.2 17175 1488 17181 1494 17186.8 1500.3 17192.2 1506.9 17197.4 1513.6 17202.3 1520.6 17206.8 1527.8 17211.1 1535.2 17215 1542.8 17218.5 1550.5 17221.7 1558.3 17224.5 1566.3 17227 1574.4 17229.1 1582.5 17230.8 1590.7 17232.2 1599 17233.1 1607.4 17233.7 1615.7 17233.9 1624 17233.7 1632.4 17233.1 1640.7 17232.2 1648.9 17230.8 1657 17229.1 1665.1 17227 1673.1 17224.5 1680.9 17221.7 1688.6 17218.5 1696.2 17215 1703.6 17211.1 1710.8 17206.8 1717.8 17202.3 1724.5 17197.4 1731.1 17192.2 1737.4 17186.8 1743.4 17181 1749.2 17175 1754.6 17168.7 1759.8 17162.1 1764.7 17155.4 1769.2 17148.4 1773.5 17141.2 1777.4 17133.8 1780.9 17126.2 1784.1 17118.5 1786.9 17110.7 1789.4 17102.7 1791.5 17094.6 1793.2 17086.5 1794.6 17078.3 1795.5 17070 1796.1 17061.6 1796.3 17053.3 1796.3 16872.7 M 16040.1 15987.6 16852.9 15987.6 M 16040.1 15987.6 16040.1 16213.4 16040.3 16222.7 16040.9 16232 16041.8 16241.3 16043.2 16250.6 16044.9 16259.7 16047 16268.8 16049.5 16277.8 16052.3 16286.7 16055.5 16295.5 16059.1 16304.1 16063 16312.6 16067.3 16320.9 16071.9 16329 16076.9 16336.9 16082.1 16344.6 16087.7 16352.1 16093.6 16359.3 16099.8 16366.3 16106.2 16373.1 16113 16379.5 16120 16385.7 16127.2 16391.6 16134.7 16397.2 16142.4 16402.4 16150.3 16407.4 16158.4 16412 16166.7 16416.3 16175.2 16420.2 16183.8 16423.8 16192.6 16427 16201.5 16429.8 16210.5 16432.3 16219.6 16434.4 16228.7 16436.1 16238 16437.5 16247.3 16438.4 16256.6 16439 16265.9 16439.2 16275.2 16439 16284.5 16438.4 16293.8 16437.5 16303.1 16436.1 16312.2 16434.4 16321.3 16432.3 16330.3 16429.8 16339.2 16427 16348 16423.8 16356.6 16420.2 16365.1 16416.3 16373.4 16412 16381.5 16407.4 16389.4 16402.4 16397.1 16397.2 16404.6 16391.6 16411.8 16385.7 16418.8 16379.5 16425.6 16373.1 16432 16366.3 16438.2 16359.3 16444.1 16352.1 16449.7 16344.6 16454.9 16336.9 16459.9 16329 16464.5 16320.9 16468.8 16312.6 16472.7 16304.1 16476.3 16295.5 16479.5 16286.7 16482.3 16277.8 16484.8 16268.8 16486.9 16259.7 16488.6 16250.6 16490 16241.3 16490.9 16232 16491.5 16222.7 16491.7 16213.4 16491.7 15987.6 M 16491.7 16258.5 16852.9 16439.1 M 16672.3 16782.3 16040.1 16963 M 16672.3 16782.3 16672.3 17233.9 M 16491.7 17098.4 16852.9 17098.4 M 9486.9 15987.6 8674.1 15987.6 8674.1 16213.4 8674.3 16222.7 8674.9 16232 8675.8 16241.3 8677.2 16250.6 8678.9 16259.7 8681 16268.8 8683.5 16277.8 8686.3 16286.7 8689.5 16295.5 8693.1 16304.1 8697 16312.6 8701.3 16320.9 8705.9 16329 8710.9 16336.9 8716.1 16344.6 8721.7 16352.1 8727.6 16359.3 8733.8 16366.3 8740.2 16373.1 8747 16379.5 8754 16385.7 8761.2 16391.6 8768.7 16397.2 8776.4 16402.4 8784.3 16407.4 8792.4 16412 8800.7 16416.3 8809.2 16420.2 8817.8 16423.8 8826.6 16427 8835.5 16429.8 8844.5 16432.3 8853.6 16434.4 8862.7 16436.1 8872 16437.5 8881.3 16438.4 8890.6 16439 8899.9 16439.2 8909.2 16439 8918.5 16438.4 8927.8 16437.5 8937.1 16436.1 8946.2 16434.4 8955.3 16432.3 8964.3 16429.8 8973.2 16427 8982 16423.8 8990.6 16420.2 8999.1 16416.3 9007.4 16412 9015.5 16407.4 9023.4 16402.4 9031.1 16397.2 9038.6 16391.6 9045.8 16385.7 9052.8 16379.5 9059.6 16373.1 9066 16366.3 9072.2 16359.3 9078.1 16352.1 9083.7 16344.6 9088.9 16336.9 9093.9 16329 9098.5 16320.9 9102.8 16312.6 9106.7 16304.1 9110.3 16295.5 9113.5 16286.7 9116.3 16277.8 9118.8 16268.8 9120.9 16259.7 9122.6 16250.6 9124 16241.3 9124.9 16232 9125.5 16222.7 9125.7 16213.4 9125.7 15987.6 M 9125.7 16258.5 9486.9 16439.1 M 8764.4 16782.3 8674.1 16782.3 8674.1 17233.9 9486.9 17008.1" fill="none" stroke-width="76.2"/><path d="M 3303 36117 3303 58117 M 19303 58117 19303 37617 M 7803 58117 3303 58117 M 7803 58117 14803 58117 19303 58117 M 7803 36117 3303 36117 M 7803 36117 14803 36117 17803 36117 19303 37617 M 7803 36117 7803 32617 M 14803 32617 14803 36117 M 14803 32617 7803 32617 M 7803 58117 7803 61117 M 14803 61117 14803 58117 M 14803 61117 7803 61117 M 1303 47117 1306 47362.4 1315 47607.7 1330.1 47852.6 1351.2 48097.2 1378.2 48341.1 1411.2 48584.3 1450.2 48826.6 1495.1 49067.9 1546 49308 1602.7 49546.8 1665.2 49784.1 1733.6 50019.8 1807.7 50253.8 1887.6 50485.9 1973.1 50716 2064.2 50943.8 2160.9 51169.4 2263.1 51392.6 2370.8 51613.1 2483.8 51831 2602.1 52046 2725.7 52258 2854.5 52467 2988.3 52672.7 3127.2 52875.1 3270.9 53074 3419.5 53269.3 3572.9 53460.9 3730.9 53648.7 3893.5 53832.6 4060.5 54012.4 4231.9 54188.1 4407.6 54359.5 4587.4 54526.5 4771.3 54689.1 4959.1 54847.1 5150.7 55000.5 5346 55149.1 5544.9 55292.8 5747.3 55431.7 5953 55565.5 6162 55694.3 6374 55817.9 6589 55936.2 6806.9 56049.2 7027.4 56156.9 7250.6 56259.1 7476.2 56355.8 7704 56446.9 7934.1 56532.4 8166.2 56612.3 8400.2 56686.4 8635.9 56754.8 8873.2 56817.3 9112 56874 9352.1 56924.9 9593.4 56969.8 9835.7 57008.8 10078.9 57041.8 10322.8 57068.8 10567.4 57089.9 10812.3 57105 11057.6 57114 11303 57117 11548.4 57114 11793.7 57105 12038.6 57089.9 12283.2 57068.8 12527.1 57041.8 12770.3 57008.8 13012.6 56969.8 13253.9 56924.9 13494 56874 13732.8 56817.3 13970.1 56754.8 14205.8 56686.4 14439.8 56612.3 14671.9 56532.4 14902 56446.9 15129.8 56355.8 15355.4 56259.1 15578.6 56156.9 15799.1 56049.2 16017 55936.2 16232 55817.9 16444 55694.3 16653 55565.5 16858.7 55431.7 17061.1 55292.8 17260 55149.1 17455.3 55000.5 17646.9 54847.1 17834.7 54689.1 18018.6 54526.5 18198.4 54359.5 18374.1 54188.1 18545.5 54012.4 18712.5 53832.6 18875.1 53648.7 19033.1 53460.9 19186.5 53269.3 19335.1 53074 19478.8 52875.1 19617.7 52672.7 19751.5 52467 19880.3 52258 20003.9 52046 20122.2 51831 20235.2 51613.1 20342.9 51392.6 20445.1 51169.4 20541.8 50943.8 20632.9 50716 20718.4 50485.9 20798.3 50253.8 20872.4 50019.8 20940.8 49784.1 21003.3 49546.8 21060 49308 21110.9 49067.9 21155.8 48826.6 21194.8 48584.3 21227.8 48341.1 21254.8 48097.2 21275.9 47852.6 21291 47607.7 21300 47362.4 21303 47117 21300 46871.6 21291 46626.3 21275.9 46381.4 21254.8 46136.8 21227.8 45892.9 21194.8 45649.7 21155.8 45407.4 21110.9 45166.1 21060 44926 21003.3 44687.2 20940.8 44449.9 20872.4 44214.2 20798.3 43980.2 20718.4 43748.1 20632.9 43518 20541.8 43290.2 20445.1 43064.6 20342.9 42841.4 20235.2 42620.9 20122.2 42403 20003.9 42188 19880.3 41976 19751.5 41767 19617.7 41561.3 19478.8 41358.9 19335.1 41160 19186.5 40964.7 19033.1 40773.1 18875.1 40585.3 18712.5 40401.4 18545.5 40221.6 18374.1 40045.9 18198.4 39874.5 18018.6 39707.5 17834.7 39544.9 17646.9 39386.9 17455.3 39233.5 17260 39084.9 17061.1 38941.2 16858.7 38802.3 16653 38668.5 16444 38539.7 16232 38416.1 16017 38297.8 15799.1 38184.8 15578.6 38077.1 15355.4 37974.9 15129.8 37878.2 14902 37787.1 14671.9 37701.6 14439.8 37621.7 14205.8 37547.6 13970.1 37479.2 13732.8 37416.7 13494 37360 13253.9 37309.1 13012.6 37264.2 12770.3 37225.2 12527.1 37192.2 12283.2 37165.2 12038.6 37144.1 11793.7 37129 11548.4 37120 11303 37117 11057.6 37120 10812.3 37129 10567.4 37144.1 10322.8 37165.2 10078.9 37192.2 9835.7 37225.2 9593.4 37264.2 9352.1 37309.1 9112 37360 8873.2 37416.7 8635.9 37479.2 8400.2 37547.6 8166.2 37621.7 7934.1 37701.6 7704 37787.1 7476.2 37878.2 7250.6 37974.9 7027.4 38077.1 6806.9 38184.8 6589 38297.8 6374 38416.1 6162 38539.7 5953 38668.5 5747.3 38802.3 5544.9 38941.2 5346 39084.9 5150.7 39233.5 4959.1 39386.9 4771.3 39544.9 4587.4 39707.5 4407.6 39874.5 4231.9 40045.9 4060.5 40221.6 3893.5 40401.4 3730.9 40585.3 3572.9 40773.1 3419.5 40964.7 3270.9 41160 3127.2 41358.9 2988.3 41561.3 2854.5 41767 2725.7 41976 2602.1 42188 2483.8 42403 2370.8 42620.9 2263.1 42841.4 2160.9 43064.6 2064.2 43290.2 1973.1 43518 1887.6 43748.1 1807.7 43980.2 1733.6 44214.2 1665.2 44449.9 1602.7 44687.2 1546 44926 1495.1 45166.1 1450.2 45407.4 1411.2 45649.7 1378.2 45892.9 1351.2 46136.8 1330.1 46381.4 1315 46626.3 1306 46871.6 1303 47117" fill="none" stroke-width="127"/><path d="M 10617.2 35252.4 11700.9 35252.4 M 11159.1 34710.5 11159.1 35794.2 M 10998.2 58747.4 12081.9 58747.4 M 21844 -4318 21844 -4826 M 21844 -4318 21717 -4318 M 21717 -1905 21716.8 -1889.2 21716.2 -1873.3 21715.2 -1857.5 21713.8 -1841.8 21712.1 -1826 21709.9 -1810.4 21707.4 -1794.7 21704.4 -1779.2 21701.1 -1763.7 21697.4 -1748.3 21693.3 -1733 21688.8 -1717.8 21683.9 -1702.8 21678.7 -1687.8 21673.1 -1673 21667.1 -1658.3 21660.8 -1643.8 21654.1 -1629.5 21647.1 -1615.3 21639.7 -1601.3 21631.9 -1587.5 21623.8 -1573.9 21615.4 -1560.5 21606.7 -1547.3 21597.6 -1534.3 21588.2 -1521.6 21578.5 -1509.1 21568.4 -1496.8 21558.1 -1484.8 21547.5 -1473.1 21536.6 -1461.6 21525.4 -1450.4 21513.9 -1439.5 21502.2 -1428.9 21490.2 -1418.6 21477.9 -1408.5 21465.4 -1398.8 21452.7 -1389.4 21439.7 -1380.3 21426.5 -1371.6 21413.1 -1363.2 21399.5 -1355.1 21385.7 -1347.3 21371.7 -1339.9 21357.5 -1332.9 21343.2 -1326.2 21328.7 -1319.9 21314 -1313.9 21299.2 -1308.3 21284.2 -1303.1 21269.2 -1298.2 21254 -1293.7 21238.7 -1289.6 21223.3 -1285.9 21207.8 -1282.6 21192.3 -1279.6 21176.6 -1277.1 21161 -1274.9 21145.2 -1273.2 21129.5 -1271.8 21113.7 -1270.8 21097.8 -1270.2 21082 -1270 M 21717 -1905 21717 -4318 M 21101 -1270 1759 -1270 M 1016 -4318 1016 -4826 M 1143 -4318 1143 -1905 M 1143 -4318 1016 -4318 M 1143 -1905 1143.2 -1889.2 1143.8 -1873.3 1144.8 -1857.5 1146.2 -1841.8 1147.9 -1826 1150.1 -1810.4 1152.6 -1794.7 1155.6 -1779.2 1158.9 -1763.7 1162.6 -1748.3 1166.7 -1733 1171.2 -1717.8 1176.1 -1702.8 1181.3 -1687.8 1186.9 -1673 1192.9 -1658.3 1199.2 -1643.8 1205.9 -1629.5 1212.9 -1615.3 1220.3 -1601.3 1228.1 -1587.5 1236.2 -1573.9 1244.6 -1560.5 1253.3 -1547.3 1262.4 -1534.3 1271.8 -1521.6 1281.5 -1509.1 1291.6 -1496.8 1301.9 -1484.8 1312.5 -1473.1 1323.4 -1461.6 1334.6 -1450.4 1346.1 -1439.5 1357.8 -1428.9 1369.8 -1418.6 1382.1 -1408.5 1394.6 -1398.8 1407.3 -1389.4 1420.3 -1380.3 1433.5 -1371.6 1446.9 -1363.2 1460.5 -1355.1 1474.3 -1347.3 1488.3 -1339.9 1502.5 -1332.9 1516.8 -1326.2 1531.3 -1319.9 1546 -1313.9 1560.8 -1308.3 1575.8 -1303.1 1590.8 -1298.2 1606 -1293.7 1621.3 -1289.6 1636.7 -1285.9 1652.2 -1282.6 1667.7 -1279.6 1683.4 -1277.1 1699 -1274.9 1714.8 -1273.2 1730.5 -1271.8 1746.3 -1270.8 1762.2 -1270.2 1778 -1270 M 19685 -11035 19699 -11034.8 19713 -11034.2 19727 -11033.3 19740.9 -11031.9 19754.8 -11030.2 19768.6 -11028.1 19782.4 -11025.6 19796.1 -11022.7 19809.7 -11019.5 19823.2 -11015.8 19836.6 -11011.8 19849.9 -11007.5 19863.1 -11002.7 19876.2 -10997.7 19889.1 -10992.2 19901.8 -10986.4 19914.4 -10980.3 19926.8 -10973.8 19939 -10966.9 19951 -10959.8 19962.8 -10952.3 19974.5 -10944.5 19985.9 -10936.3 19997 -10927.9 20007.9 -10919.1 20018.6 -10910.1 20029.1 -10900.7 20039.2 -10891.1 20049.1 -10881.2 20058.7 -10871.1 20068.1 -10860.6 20077.1 -10849.9 20085.9 -10839 20094.3 -10827.9 20102.5 -10816.5 20110.3 -10804.8 20117.8 -10793 20124.9 -10781 20131.8 -10768.8 20138.3 -10756.4 20144.4 -10743.8 20150.2 -10731.1 20155.7 -10718.2 20160.7 -10705.1 20165.5 -10691.9 20169.8 -10678.6 20173.8 -10665.2 20177.5 -10651.7 20180.7 -10638.1 20183.6 -10624.4 20186.1 -10610.6 20188.2 -10596.8 20189.9 -10582.9 20191.3 -10569 20192.2 -10555 20192.8 -10541 20193 -10527 M 3175 -11035 3161 -11034.8 3147 -11034.2 3133 -11033.3 3119.1 -11031.9 3105.2 -11030.2 3091.4 -11028.1 3077.6 -11025.6 3063.9 -11022.7 3050.3 -11019.5 3036.8 -11015.8 3023.4 -11011.8 3010.1 -11007.5 2996.9 -11002.7 2983.8 -10997.7 2970.9 -10992.2 2958.2 -10986.4 2945.6 -10980.3 2933.2 -10973.8 2921 -10966.9 2909 -10959.8 2897.2 -10952.3 2885.5 -10944.5 2874.1 -10936.3 2863 -10927.9 2852.1 -10919.1 2841.4 -10910.1 2830.9 -10900.7 2820.8 -10891.1 2810.9 -10881.2 2801.3 -10871.1 2791.9 -10860.6 2782.9 -10849.9 2774.1 -10839 2765.7 -10827.9 2757.5 -10816.5 2749.7 -10804.8 2742.2 -10793 2735.1 -10781 2728.2 -10768.8 2721.7 -10756.4 2715.6 -10743.8 2709.8 -10731.1 2704.3 -10718.2 2699.3 -10705.1 2694.5 -10691.9 2690.2 -10678.6 2686.2 -10665.2 2682.5 -10651.7 2679.3 -10638.1 2676.4 -10624.4 2673.9 -10610.6 2671.8 -10596.8 2670.1 -10582.9 2668.7 -10569 2667.8 -10555 2667.2 -10541 2667 -10527 M 6350 -7479 8636 -7479 8636 -9765 M 6350 -9765 6350 -7479 M 10287 -7479 12573 -7479 12573 -9765 M 10287 -9765 10287 -7479 M 14224 -7479 16510 -7479 16510 -9765 M 14224 -9765 14224 -7479 M 2667 -5828 2667 -10527 M 2667 -5828 2666.8 -5812.2 2666.2 -5796.3 2665.2 -5780.5 2663.8 -5764.8 2662.1 -5749 2659.9 -5733.4 2657.4 -5717.7 2654.4 -5702.2 2651.1 -5686.7 2647.4 -5671.3 2643.3 -5656 2638.8 -5640.8 2633.9 -5625.8 2628.7 -5610.8 2623.1 -5596 2617.1 -5581.3 2610.8 -5566.8 2604.1 -5552.5 2597.1 -5538.3 2589.7 -5524.3 2581.9 -5510.5 2573.8 -5496.9 2565.4 -5483.5 2556.7 -5470.3 2547.6 -5457.3 2538.2 -5444.6 2528.5 -5432.1 2518.4 -5419.8 2508.1 -5407.8 2497.5 -5396.1 2486.6 -5384.6 2475.4 -5373.4 2463.9 -5362.5 2452.2 -5351.9 2440.2 -5341.6 2427.9 -5331.5 2415.4 -5321.8 2402.7 -5312.4 2389.7 -5303.3 2376.5 -5294.6 2363.1 -5286.2 2349.5 -5278.1 2335.7 -5270.3 2321.7 -5262.9 2307.5 -5255.9 2293.2 -5249.2 2278.7 -5242.9 2264 -5236.9 2249.2 -5231.3 2234.2 -5226.1 2219.2 -5221.2 2204 -5216.7 2188.7 -5212.6 2173.3 -5208.9 2157.8 -5205.6 2142.3 -5202.6 2126.6 -5200.1 2111 -5197.9 2095.2 -5196.2 2079.5 -5194.8 2063.7 -5193.8 2047.8 -5193.2 2032 -5193 M 20193 -5828 20193 -10527 M 20193 -5828 20193.2 -5812.2 20193.8 -5796.3 20194.8 -5780.5 20196.2 -5764.8 20197.9 -5749 20200.1 -5733.4 20202.6 -5717.7 20205.6 -5702.2 20208.9 -5686.7 20212.6 -5671.3 20216.7 -5656 20221.2 -5640.8 20226.1 -5625.8 20231.3 -5610.8 20236.9 -5596 20242.9 -5581.3 20249.2 -5566.8 20255.9 -5552.5 20262.9 -5538.3 20270.3 -5524.3 20278.1 -5510.5 20286.2 -5496.9 20294.6 -5483.5 20303.3 -5470.3 20312.4 -5457.3 20321.8 -5444.6 20331.5 -5432.1 20341.6 -5419.8 20351.9 -5407.8 20362.5 -5396.1 20373.4 -5384.6 20384.6 -5373.4 20396.1 -5362.5 20407.8 -5351.9 20419.8 -5341.6 20432.1 -5331.5 20444.6 -5321.8 20457.3 -5312.4 20470.3 -5303.3 20483.5 -5294.6 20496.9 -5286.2 20510.5 -5278.1 20524.3 -5270.3 20538.3 -5262.9 20552.5 -5255.9 20566.8 -5249.2 20581.3 -5242.9 20596 -5236.9 20610.8 -5231.3 20625.8 -5226.1 20640.8 -5221.2 20656 -5216.7 20671.3 -5212.6 20686.7 -5208.9 20702.2 -5205.6 20717.7 -5202.6 20733.4 -5200.1 20749 -5197.9 20764.8 -5196.2 20780.5 -5194.8 20796.3 -5193.8 20812.2 -5193.2 20828 -5193 M 19685 -11035 3175 -11035" fill="none" stroke-width="152.4"/><path d="M 5678.7 -1948.9 5996.2 -1694.9 5996.2 -2837.9 M 5678.7 -2837.9 6313.7 -2837.9 M 16619.3 -2837.9 17000.3 -2837.9 17010.3 -2837.7 17020.2 -2837.1 17030.2 -2836.1 17040 -2834.8 17049.9 -2833 17059.6 -2830.9 17069.2 -2828.4 17078.8 -2825.5 17088.2 -2822.2 17097.5 -2818.6 17106.6 -2814.6 17115.6 -2810.2 17124.4 -2805.5 17133 -2800.5 17141.4 -2795.1 17149.6 -2789.4 17157.5 -2783.4 17165.3 -2777 17172.7 -2770.4 17179.9 -2763.5 17186.8 -2756.3 17193.4 -2748.9 17199.8 -2741.1 17205.8 -2733.2 17211.5 -2725 17216.9 -2716.6 17221.9 -2708 17226.6 -2699.2 17231 -2690.2 17235 -2681.1 17238.6 -2671.8 17241.9 -2662.4 17244.8 -2652.8 17247.3 -2643.2 17249.4 -2633.5 17251.2 -2623.6 17252.5 -2613.8 17253.5 -2603.8 17254.1 -2593.9 17254.3 -2583.9 17254.3 -2456.9 17254.1 -2446.9 17253.5 -2437 17252.5 -2427 17251.2 -2417.2 17249.4 -2407.3 17247.3 -2397.6 17244.8 -2388 17241.9 -2378.4 17238.6 -2369 17235 -2359.7 17231 -2350.6 17226.6 -2341.6 17221.9 -2332.8 17216.9 -2324.2 17211.5 -2315.8 17205.8 -2307.6 17199.8 -2299.7 17193.4 -2291.9 17186.8 -2284.5 17179.9 -2277.3 17172.7 -2270.4 17165.3 -2263.8 17157.5 -2257.4 17149.6 -2251.4 17141.4 -2245.7 17133 -2240.3 17124.4 -2235.3 17115.6 -2230.6 17106.6 -2226.2 17097.5 -2222.2 17088.2 -2218.6 17078.8 -2215.3 17069.2 -2212.4 17059.6 -2209.9 17049.9 -2207.8 17040 -2206 17030.2 -2204.7 17020.2 -2203.7 17010.3 -2203.1 17000.3 -2202.9 16619.3 -2202.9 16619.3 -1694.9 17254.3 -1694.9" fill="none" stroke-width="127"/><use xlink:href="#WnY9E8s45zi9oz1maO10_pad-15" x="11430" y="-4980"/><use xlink:href="#WnY9E8s45zi9oz1maO10_pad-16" x="11430" y="-450"/></g><g id="NT-YIytG-sXDfZJ7eM0S_top_solderpaste"><use xlink:href="#bcHsDVeZ9R0q2wfDsqM2_pad-10" x="13160" y="26670"/><use xlink:href="#bcHsDVeZ9R0q2wfDsqM2_pad-10" x="10160" y="26670"/><use xlink:href="#bcHsDVeZ9R0q2wfDsqM2_pad-10" x="13160" y="11430"/><use xlink:href="#bcHsDVeZ9R0q2wfDsqM2_pad-10" x="10160" y="11430"/><use xlink:href="#bcHsDVeZ9R0q2wfDsqM2_pad-10" x="5540" y="19050"/><use xlink:href="#bcHsDVeZ9R0q2wfDsqM2_pad-10" x="2540" y="19050"/><use xlink:href="#bcHsDVeZ9R0q2wfDsqM2_pad-10" x="20780" y="19050"/><use xlink:href="#bcHsDVeZ9R0q2wfDsqM2_pad-10" x="17780" y="19050"/><use xlink:href="#bcHsDVeZ9R0q2wfDsqM2_pad-10" x="13160" y="19050"/><use xlink:href="#bcHsDVeZ9R0q2wfDsqM2_pad-10" x="10160" y="19050"/><use xlink:href="#bcHsDVeZ9R0q2wfDsqM2_pad-11" x="10734" y="24130"/><use xlink:href="#bcHsDVeZ9R0q2wfDsqM2_pad-11" x="12634" y="24130"/><use xlink:href="#bcHsDVeZ9R0q2wfDsqM2_pad-11" x="10480" y="8890"/><use xlink:href="#bcHsDVeZ9R0q2wfDsqM2_pad-11" x="12380" y="8890"/><use xlink:href="#bcHsDVeZ9R0q2wfDsqM2_pad-11" x="3495" y="16510"/><use xlink:href="#bcHsDVeZ9R0q2wfDsqM2_pad-11" x="5395" y="16510"/><use xlink:href="#bcHsDVeZ9R0q2wfDsqM2_pad-11" x="18100" y="16510"/><use xlink:href="#bcHsDVeZ9R0q2wfDsqM2_pad-11" x="20000" y="16510"/><use xlink:href="#bcHsDVeZ9R0q2wfDsqM2_pad-11" x="12634" y="16510"/><use xlink:href="#bcHsDVeZ9R0q2wfDsqM2_pad-11" x="10734" y="16510"/><use xlink:href="#bcHsDVeZ9R0q2wfDsqM2_pad-12" x="11303" y="61214"/><use xlink:href="#bcHsDVeZ9R0q2wfDsqM2_pad-12" x="11303" y="32639"/><use xlink:href="#bcHsDVeZ9R0q2wfDsqM2_pad-13" x="5943.8" y="2234.8"/><use xlink:href="#bcHsDVeZ9R0q2wfDsqM2_pad-13" x="8686.6" y="2234.8"/><use xlink:href="#bcHsDVeZ9R0q2wfDsqM2_pad-13" x="11430" y="2235"/><use xlink:href="#bcHsDVeZ9R0q2wfDsqM2_pad-13" x="14173.4" y="2234.8"/><use xlink:href="#bcHsDVeZ9R0q2wfDsqM2_pad-13" x="16916.2" y="2234.8"/></g><g id="NT-YIytG-sXDfZJ7eM0S_top_soldermask"><use xlink:href="#d-6raRBG5NyhxatJfz0l_pad-10" x="13160" y="26670"/><use xlink:href="#d-6raRBG5NyhxatJfz0l_pad-10" x="10160" y="26670"/><use xlink:href="#d-6raRBG5NyhxatJfz0l_pad-10" x="13160" y="11430"/><use xlink:href="#d-6raRBG5NyhxatJfz0l_pad-10" x="10160" y="11430"/><use xlink:href="#d-6raRBG5NyhxatJfz0l_pad-10" x="5540" y="19050"/><use xlink:href="#d-6raRBG5NyhxatJfz0l_pad-10" x="2540" y="19050"/><use xlink:href="#d-6raRBG5NyhxatJfz0l_pad-10" x="20780" y="19050"/><use xlink:href="#d-6raRBG5NyhxatJfz0l_pad-10" x="17780" y="19050"/><use xlink:href="#d-6raRBG5NyhxatJfz0l_pad-10" x="13160" y="19050"/><use xlink:href="#d-6raRBG5NyhxatJfz0l_pad-10" x="10160" y="19050"/><use xlink:href="#d-6raRBG5NyhxatJfz0l_pad-11" x="10734" y="24130"/><use xlink:href="#d-6raRBG5NyhxatJfz0l_pad-11" x="12634" y="24130"/><use xlink:href="#d-6raRBG5NyhxatJfz0l_pad-11" x="10480" y="8890"/><use xlink:href="#d-6raRBG5NyhxatJfz0l_pad-11" x="12380" y="8890"/><use xlink:href="#d-6raRBG5NyhxatJfz0l_pad-11" x="3495" y="16510"/><use xlink:href="#d-6raRBG5NyhxatJfz0l_pad-11" x="5395" y="16510"/><use xlink:href="#d-6raRBG5NyhxatJfz0l_pad-11" x="18100" y="16510"/><use xlink:href="#d-6raRBG5NyhxatJfz0l_pad-11" x="20000" y="16510"/><use xlink:href="#d-6raRBG5NyhxatJfz0l_pad-11" x="12634" y="16510"/><use xlink:href="#d-6raRBG5NyhxatJfz0l_pad-11" x="10734" y="16510"/><use xlink:href="#d-6raRBG5NyhxatJfz0l_pad-12" x="11303" y="61214"/><use xlink:href="#d-6raRBG5NyhxatJfz0l_pad-12" x="11303" y="32639"/><use xlink:href="#d-6raRBG5NyhxatJfz0l_pad-13" x="5943.8" y="2234.8"/><use xlink:href="#d-6raRBG5NyhxatJfz0l_pad-13" x="8686.6" y="2234.8"/><use xlink:href="#d-6raRBG5NyhxatJfz0l_pad-13" x="11430" y="2235"/><use xlink:href="#d-6raRBG5NyhxatJfz0l_pad-13" x="14173.4" y="2234.8"/><use xlink:href="#d-6raRBG5NyhxatJfz0l_pad-13" x="16916.2" y="2234.8"/></g><g id="NT-YIytG-sXDfZJ7eM0S_top_copper"><g mask="url(#grhUJlz_NqmwATT0eZcJ_clear-3)"><g mask="url(#grhUJlz_NqmwATT0eZcJ_clear-2)"><g mask="url(#grhUJlz_NqmwATT0eZcJ_clear-1)"><path d="M 4988.8 254.2 4988.8 254.2 4989.2 254.1 4998.5 256.1 5007.9 258 5008.2 258.3 5008.6 258.4 5016.4 263.9 5024.3 269.3 5024.5 269.6 5024.8 269.9 5029.8 278 5035 286 5035 286.5 5035.2 286.8 5036.7 296.2 5038.3 305.7 5038.2 306.1 5038.2 306.5 5035.9 315.7 5033.7 325 5033.4 325.3 5033.3 325.7 5023.7 339.3 4941.3 421.6 4941.3 2944.2 4941.1 2945.4 4941.3 2946.7 4939.1 2955.1 4937.4 2963.7 4936.7 2964.7 4936.3 2965.9 4926.7 2979.5 4190.9 3715.3 4190.9 15507.6 4190.8 15508.4 4190.9 15509.3 4188.8 15518.1 4187 15527.1 4186.5 15527.8 4186.3 15528.6 4180.9 15535.9 4175.7 15543.5 4175 15543.9 4174.5 15544.6 4166.7 15549.3 4159 15554.2 4158.1 15554.3 4157.4 15554.8 4141 15557.5 2781.8 15557.5 2692.5 15646.8 2692.5 16927.8 2692.3 16929 2692.5 16930.3 2690.3 16938.7 2688.6 16947.3 2687.9 16948.3 2687.5 16949.5 2677.9 16963.1 2362.1 17278.9 2362.1 18147.6 2362 18148.4 2362.1 18149.3 2360 18158.1 2358.2 18167.1 2357.7 18167.8 2357.5 18168.6 2352.1 18175.9 2346.9 18183.5 2346.2 18183.9 2345.7 18184.6 2337.9 18189.3 2330.2 18194.2 2329.3 18194.3 2328.6 18194.8 2312.2 18197.5 1876.8 18197.5 1787.5 18286.8 1787.5 19813.2 1876.8 19902.5 3203.2 19902.5 3292.5 19813.2 3292.5 18286.8 3203.2 18197.5 2869.4 18197.5 2868.6 18197.4 2867.7 18197.5 2858.9 18195.4 2849.9 18193.6 2849.2 18193.1 2848.4 18192.9 2841.1 18187.5 2833.5 18182.3 2833.1 18181.6 2832.4 18181.1 2827.7 18173.3 2822.8 18165.6 2822.7 18164.7 2822.2 18164 2819.5 18147.6 2819.5 17512.4 2819.6 17511.6 2819.5 17510.7 2821.6 17501.9 2823.4 17492.9 2823.9 17492.2 2824.1 17491.4 2829.5 17484.1 2834.7 17476.5 2835.4 17476.1 2835.9 17475.4 2843.7 17470.7 2851.4 17465.8 2852.3 17465.7 2853 17465.2 2869.4 17462.5 4164.4 17462.5 4165.6 17462.7 4166.9 17462.5 4175.3 17464.7 4183.9 17466.4 4184.9 17467.1 4186.1 17467.5 4199.7 17477.1 4629.7 17907.1 6437.8 17907.1 6439 17907.3 6440.3 17907.1 6448.7 17909.3 6457.3 17911 6458.3 17911.7 6459.5 17912.1 6473.1 17921.7 11816.9 23265.5 11817.6 23266.6 11818.6 23267.3 11823.1 23274.8 11827.9 23282.1 11828.1 23283.3 11828.8 23284.4 11831.5 23300.8 11831.5 24993.2 11920.8 25082.5 13347.2 25082.5 13436.5 24993.2 13436.5 23266.8 13347.2 23177.5 12396.4 23177.5 12395.2 23177.3 12393.9 23177.5 12385.5 23175.3 12376.9 23173.6 12375.9 23172.9 12374.7 23172.5 12361.1 23162.9 6647.9 17449.7 6241.4 17449.7 6241 17449.6 6240.6 17449.7 6231.3 17447.7 6221.9 17445.8 6221.6 17445.5 6221.2 17445.4 6213.4 17439.9 6205.5 17434.5 6205.3 17434.2 6205 17433.9 6199.9 17425.7 6194.8 17417.8 6194.8 17417.3 6194.5 17417 6193.1 17407.5 6191.5 17398.1 6191.6 17397.7 6191.6 17397.3 6193.9 17388 6196.1 17378.8 6196.4 17378.5 6196.5 17378 6197.5 17376.7 6197.5 16092.2 6197.7 16091 6197.5 16089.7 6199.7 16081.3 6201.4 16072.7 6202.1 16071.7 6202.5 16070.5 6212.1 16056.9 8906.3 13362.7 8906.7 13362.5 8906.9 13362.1 8914.9 13357 8922.9 13351.7 8923.3 13351.6 8923.6 13351.4 8933 13349.8 8942.4 13348.1 8942.8 13348.2 8943.3 13348.1 8952.4 13350.3 8961.8 13352.4 8962.2 13352.6 8962.6 13352.7 8970.2 13358.3 8978.1 13363.9 8978.3 13364.2 8978.6 13364.5 8983.5 13372.7 8988.5 13380.8 8988.5 13381.2 8988.8 13381.6 8991.5 13398 8991.5 13600.6 9259.4 13868.5 9562 13868.5 9563.2 13868.7 9564.5 13868.5 9572.9 13870.7 9581.5 13872.4 9582.5 13873.1 9583.7 13873.5 9597.3 13883.1 11186.5 15472.3 11186.7 15472.7 11187.1 15472.9 11192.2 15480.9 11197.5 15488.9 11197.6 15489.3 11197.8 15489.6 11199.4 15499 11201.1 15508.4 11201 15508.8 11201.1 15509.3 11198.9 15518.4 11196.8 15527.8 11196.6 15528.2 11196.5 15528.6 11190.9 15536.2 11185.3 15544.1 11185 15544.3 11184.7 15544.6 11176.5 15549.5 11168.4 15554.5 11168 15554.5 11167.6 15554.8 11151.2 15557.5 10020.8 15557.5 9931.5 15646.8 9931.5 17373.2 9967.5 17409.1 9968.2 17410.2 9969.2 17410.9 9973.7 17418.4 9978.5 17425.7 9978.7 17426.9 9979.4 17428 9982.1 17444.4 9982.1 18147.6 9982 18148.4 9982.1 18149.3 9980 18158.1 9978.2 18167.1 9977.7 18167.8 9977.5 18168.6 9972.1 18175.9 9966.9 18183.5 9966.2 18183.9 9965.7 18184.6 9957.9 18189.3 9950.2 18194.2 9949.3 18194.3 9948.6 18194.8 9932.2 18197.5 9496.8 18197.5 9407.5 18286.8 9407.5 19813.2 9496.8 19902.5 10823.2 19902.5 10912.5 19813.2 10912.5 18286.8 10823.2 18197.5 10489.4 18197.5 10488.6 18197.4 10487.7 18197.5 10478.9 18195.4 10469.9 18193.6 10469.2 18193.1 10468.4 18192.9 10461.1 18187.5 10453.5 18182.3 10453.1 18181.6 10452.4 18181.1 10447.7 18173.3 10442.8 18165.6 10442.7 18164.7 10442.2 18164 10439.5 18147.6 10439.5 17512.4 10439.6 17511.6 10439.5 17510.7 10441.6 17501.9 10443.4 17492.9 10443.9 17492.2 10444.1 17491.4 10449.5 17484.1 10454.7 17476.5 10455.4 17476.1 10455.9 17475.4 10463.7 17470.7 10471.4 17465.8 10472.3 17465.7 10473 17465.2 10489.4 17462.5 11447.2 17462.5 11536.5 17373.2 11536.5 15942.8 11536.6 15942.4 11536.5 15942 11538.5 15932.6 11540.4 15923.3 11540.7 15923 11540.8 15922.6 11546.3 15914.8 11551.7 15906.9 11552 15906.7 11552.3 15906.3 11560.4 15901.4 11568.4 15896.2 11568.9 15896.1 11569.2 15895.9 11578.6 15894.5 11588.1 15892.9 11588.5 15893 11588.9 15892.9 11598.1 15895.3 11607.4 15897.5 11607.7 15897.8 11608.1 15897.9 11621.7 15907.5 11816.9 16102.7 11817.6 16103.8 11818.6 16104.5 11823.1 16112 11827.9 16119.3 11828.1 16120.5 11828.8 16121.6 11831.5 16138 11831.5 17373.2 11920.8 17462.5 13285 17462.5 13285.8 17462.6 13286.7 17462.5 13295.5 17464.6 13304.5 17466.4 13305.2 17466.9 13306 17467.1 13313.3 17472.5 13320.9 17477.7 13321.3 17478.4 13322 17478.9 13326.7 17486.7 13331.6 17494.4 13331.7 17495.3 13332.2 17496 13334.9 17512.4 13334.9 18147.6 13334.8 18148.4 13334.9 18149.3 13332.8 18158.1 13331 18167.1 13330.5 18167.8 13330.3 18168.6 13324.9 18175.9 13319.7 18183.5 13319 18183.9 13318.5 18184.6 13310.7 18189.3 13303 18194.2 13302.1 18194.3 13301.4 18194.8 13285 18197.5 12496.8 18197.5 12407.5 18286.8 12407.5 19813.2 12496.8 19902.5 13823.2 19902.5 13912.5 19813.2 13912.5 19538 13912.6 19537.6 13912.5 19537.2 13914.5 19527.8 13916.4 19518.5 13916.7 19518.2 13916.8 19517.8 13922.3 19510 13927.7 19502.1 13928 19501.9 13928.3 19501.5 13936.4 19496.6 13944.4 19491.4 13944.9 19491.3 13945.2 19491.1 13954.6 19489.7 13964.1 19488.1 13964.5 19488.2 13964.9 19488.1 13974.1 19490.5 13983.4 19492.7 13983.7 19493 13984.1 19493.1 13997.7 19502.7 14691.9 20196.9 14692.6 20198 14693.6 20198.7 14698.1 20206.2 14702.9 20213.5 14703.1 20214.7 14703.8 20215.8 14706.5 20232.2 14706.5 24878.2 14706.3 24879.4 14706.5 24880.7 14704.3 24889.1 14702.6 24897.7 14701.9 24898.7 14701.5 24899.9 14691.9 24913.5 13802.5 25802.9 13801.4 25803.6 13800.7 25804.6 13793.2 25809.1 13785.9 25813.9 13784.7 25814.1 13783.6 25814.8 13767.2 25817.5 12496.8 25817.5 12407.5 25906.8 12407.5 27438.4 12408.2 27439.5 12408.3 27439.9 12408.6 27440.2 12410.1 27449.6 12411.9 27459 12411.8 27459.4 12411.9 27459.9 12409.7 27469.1 12407.6 27478.4 12407.4 27478.8 12407.3 27479.2 12401.6 27486.8 12396.1 27494.6 12395.7 27494.9 12395.5 27495.2 12387.3 27500.1 12379.2 27505.1 12378.7 27505.1 12378.4 27505.4 12362 27508.1 10958 27508.1 10957.6 27508 10957.2 27508.1 10947.9 27506.1 10938.5 27504.2 10938.2 27503.9 10937.8 27503.8 10930 27498.3 10922.1 27492.9 10921.9 27492.6 10921.6 27492.3 10916.6 27484.2 10911.4 27476.2 10911.4 27475.7 10911.1 27475.4 10909.7 27465.9 10908.1 27456.5 10908.2 27456.1 10908.2 27455.7 10910.5 27446.4 10912.5 27438.3 10912.5 25906.8 10823.2 25817.5 10489.4 25817.5 10488.6 25817.4 10487.7 25817.5 10478.9 25815.4 10469.9 25813.6 10469.2 25813.1 10468.4 25812.9 10461.1 25807.5 10453.5 25802.3 10453.1 25801.6 10452.4 25801.1 10447.7 25793.3 10442.8 25785.6 10442.7 25784.7 10442.2 25784 10439.5 25767.6 10439.5 25132.4 10439.6 25131.6 10439.5 25130.7 10441.6 25121.9 10443.4 25112.9 10443.9 25112.2 10444.1 25111.4 10449.5 25104.1 10454.7 25096.5 10455.4 25096.1 10455.9 25095.4 10463.7 25090.7 10471.4 25085.8 10472.3 25085.7 10473 25085.2 10489.4 25082.5 11447.2 25082.5 11536.5 24993.2 11536.5 23266.8 11447.2 23177.5 10020.8 23177.5 9931.5 23266.8 9931.5 24993.2 9967.5 25029.1 9968.2 25030.2 9969.2 25030.9 9973.7 25038.4 9978.5 25045.7 9978.7 25046.9 9979.4 25048 9982.1 25064.4 9982.1 25767.6 9982 25768.4 9982.1 25769.3 9980 25778.1 9978.2 25787.1 9977.7 25787.8 9977.5 25788.6 9972.1 25795.9 9966.9 25803.5 9966.2 25803.9 9965.7 25804.6 9957.9 25809.3 9950.2 25814.2 9949.3 25814.3 9948.6 25814.8 9932.2 25817.5 9496.8 25817.5 9407.5 25906.8 9407.5 27438.4 9408.2 27439.5 9408.3 27439.9 9408.6 27440.2 9410.1 27449.6 9411.9 27459 9411.8 27459.4 9411.9 27459.9 9409.7 27469.1 9407.6 27478.4 9407.4 27478.8 9407.3 27479.2 9401.6 27486.8 9396.1 27494.6 9395.7 27494.9 9395.5 27495.2 9387.3 27500.1 9379.2 27505.1 9378.7 27505.1 9378.4 27505.4 9362 27508.1 9208.6 27508.1 9207.4 27507.9 9206.1 27508.1 9197.7 27505.9 9189.1 27504.2 9188.1 27503.5 9186.9 27503.1 9173.3 27493.5 5729.7 24049.9 5729 24048.8 5728 24048.1 5723.5 24040.6 5718.7 24033.3 5718.5 24032.1 5717.8 24031 5715.1 24014.6 5715.1 19952.4 5715.2 19951.6 5715.1 19950.7 5717.2 19941.9 5719 19932.9 5719.5 19932.2 5719.7 19931.4 5725.1 19924.1 5730.3 19916.5 5731 19916.1 5731.5 19915.4 5739.3 19910.7 5747 19905.8 5747.9 19905.7 5748.6 19905.2 5765 19902.5 6203.2 19902.5 6292.5 19813.2 6292.5 18286.8 6203.2 18197.5 4876.8 18197.5 4787.5 18286.8 4787.5 19813.2 4876.8 19902.5 5207.8 19902.5 5208.6 19902.6 5209.5 19902.5 5218.3 19904.6 5227.3 19906.4 5228 19906.9 5228.8 19907.1 5236.1 19912.5 5243.7 19917.7 5244.1 19918.4 5244.8 19918.9 5249.5 19926.7 5254.4 19934.4 5254.5 19935.3 5255 19936 5257.7 19952.4 5257.7 24224.7 8998.5 27965.5 13201.1 27965.5 13335.1 27831.5 13335.1 27572.4 13335.2 27571.6 13335.1 27570.7 13337.2 27561.9 13339 27552.9 13339.5 27552.2 13339.7 27551.4 13345.1 27544.1 13350.3 27536.5 13351 27536.1 13351.5 27535.4 13359.3 27530.7 13367 27525.8 13367.9 27525.7 13368.6 27525.2 13385 27522.5 13823.2 27522.5 13912.5 27433.2 13912.5 26360.4 13912.7 26359.2 13912.5 26357.9 13914.7 26349.5 13916.4 26340.9 13917.1 26339.9 13917.5 26338.7 13927.1 26325.1 15163.9 25088.3 15163.9 20395.4 15164 20394.6 15163.9 20393.7 15166 20384.9 15167.8 20375.9 15168.3 20375.2 15168.5 20374.4 15173.9 20367.1 15179.1 20359.5 15179.8 20359.1 15180.3 20358.4 15188.1 20353.7 15195.8 20348.8 15196.7 20348.7 15197.4 20348.2 15213.8 20345.5 18535.1 20345.5 19587.3 19293.3 19588.4 19292.6 19589.1 19291.6 19596.6 19287.1 19603.9 19282.3 19605.1 19282.1 19606.2 19281.4 19622.6 19278.7 19977.6 19278.7 19978.4 19278.8 19979.3 19278.7 19988.1 19280.8 19997.1 19282.6 19997.8 19283.1 19998.6 19283.3 20005.9 19288.7 20013.5 19293.9 20013.9 19294.6 20014.6 19295.1 20019.3 19302.9 20024.2 19310.6 20024.3 19311.5 20024.8 19312.2 20027.5 19328.6 20027.5 19813.2 20116.8 19902.5 21443.2 19902.5 21532.5 19813.2 21532.5 18286.8 21443.2 18197.5 20116.8 18197.5 20027.5 18286.8 20027.5 18771.4 20027.4 18772.2 20027.5 18773.1 20025.4 18781.9 20023.6 18790.9 20023.1 18791.6 20022.9 18792.4 20017.5 18799.7 20012.3 18807.3 20011.6 18807.7 20011.1 18808.4 20003.3 18813.1 19995.6 18818 19994.7 18818.1 19994 18818.6 19977.6 18821.3 19412.5 18821.3 18617.7 19616.1 18617.3 19616.3 18617.1 19616.7 18609.1 19621.8 18601.1 19627.1 18600.7 19627.2 18600.4 19627.4 18591 19629 18581.6 19630.7 18581.2 19630.6 18580.7 19630.7 18571.6 19628.5 18562.2 19626.4 18561.8 19626.2 18561.4 19626.1 18553.8 19620.5 18545.9 19614.9 18545.7 19614.6 18545.4 19614.3 18540.5 19606.1 18535.5 19598 18535.5 19597.6 18535.2 19597.2 18532.5 19580.8 18532.5 18286.8 18443.2 18197.5 18109.4 18197.5 18108.6 18197.4 18107.7 18197.5 18098.9 18195.4 18089.9 18193.6 18089.2 18193.1 18088.4 18192.9 18081.1 18187.5 18073.5 18182.3 18073.1 18181.6 18072.4 18181.1 18067.7 18173.3 18062.8 18165.6 18062.7 18164.7 18062.2 18164 18059.5 18147.6 18059.5 17512.4 18059.6 17511.6 18059.5 17510.7 18061.6 17501.9 18063.4 17492.9 18063.9 17492.2 18064.1 17491.4 18069.5 17484.1 18074.7 17476.5 18075.4 17476.1 18075.9 17475.4 18083.7 17470.7 18091.4 17465.8 18092.3 17465.7 18093 17465.2 18109.4 17462.5 18813.2 17462.5 18902.5 17373.2 18902.5 15646.8 18813.2 15557.5 17386.8 15557.5 17297.5 15646.8 17297.5 17373.2 17386.8 17462.5 17552.2 17462.5 17553 17462.6 17553.9 17462.5 17562.7 17464.6 17571.7 17466.4 17572.4 17466.9 17573.2 17467.1 17580.5 17472.5 17588.1 17477.7 17588.5 17478.4 17589.2 17478.9 17593.9 17486.7 17598.8 17494.4 17598.9 17495.3 17599.4 17496 17602.1 17512.4 17602.1 18147.6 17602 18148.4 17602.1 18149.3 17600 18158.1 17598.2 18167.1 17597.7 18167.8 17597.5 18168.6 17592.1 18175.9 17586.9 18183.5 17586.2 18183.9 17585.7 18184.6 17577.9 18189.3 17570.2 18194.2 17569.3 18194.3 17568.6 18194.8 17552.2 18197.5 17116.8 18197.5 17027.5 18286.8 17027.5 19818.4 17028.2 19819.5 17028.3 19819.9 17028.6 19820.2 17030.1 19829.6 17031.9 19839 17031.8 19839.4 17031.9 19839.9 17029.7 19849.1 17027.6 19858.4 17027.4 19858.8 17027.3 19859.2 17021.6 19866.8 17016.1 19874.6 17015.7 19874.9 17015.5 19875.2 17007.3 19880.1 16999.2 19885.1 16998.7 19885.1 16998.4 19885.4 16982 19888.1 15050.6 19888.1 15049.4 19887.9 15048.1 19888.1 15039.7 19885.9 15031.1 19884.2 15030.1 19883.5 15028.9 19883.1 15015.3 19873.5 13927.1 18785.3 13926.4 18784.2 13925.4 18783.5 13920.9 18776 13916.1 18768.7 13915.9 18767.5 13915.2 18766.4 13912.5 18750 13912.5 18286.8 13811.5 18185.9 13806.3 18182.3 13805.9 18181.6 13805.2 18181.1 13800.5 18173.3 13795.6 18165.6 13795.5 18164.7 13795 18164 13792.3 18147.6 13792.3 15450.1 13502.1 15159.9 13501.4 15158.8 13500.4 15158.1 13495.9 15150.6 13491.1 15143.3 13490.9 15142.1 13490.2 15141 13487.5 15124.6 13487.5 12332.4 13487.6 12331.6 13487.5 12330.7 13489.6 12321.9 13491.4 12312.9 13491.9 12312.2 13492.1 12311.4 13497.5 12304.1 13502.7 12296.5 13503.4 12296.1 13503.9 12295.4 13511.7 12290.7 13519.4 12285.8 13520.3 12285.7 13521 12285.2 13537.4 12282.5 13823.2 12282.5 13912.5 12193.2 13912.5 10666.8 13823.2 10577.5 12726.4 10577.5 12726 10577.4 12725.6 10577.5 12716.2 10575.5 12706.9 10573.6 12706.6 10573.3 12706.2 10573.2 12698.4 10567.7 12690.5 10562.3 12690.3 10562 12689.9 10561.7 12685 10553.6 12679.8 10545.6 12679.7 10545.1 12679.5 10544.8 12678.1 10535.4 12676.5 10525.9 12676.6 10525.5 12676.5 10525.1 12678.9 10515.9 12681.1 10506.6 12681.4 10506.3 12681.5 10505.9 12691.1 10492.3 12881.7 10301.7 12882.8 10301 12883.5 10300 12891 10295.5 12898.3 10290.7 12899.5 10290.5 12900.6 10289.8 12917 10287.1 13201.1 10287.1 13487.5 10000.7 13487.5 4187.2 13487.6 4186.4 13487.5 4185.5 13489.6 4176.7 13491.4 4167.7 13491.9 4167 13492.1 4166.2 13497.5 4158.9 13502.7 4151.3 13503.4 4150.9 13503.9 4150.2 13511.7 4145.5 13519.4 4140.6 13520.3 4140.5 13521 4140 13537.4 4137.3 15086.6 4137.3 15175.9 4048 15175.9 3885 15176 3884.6 15175.9 3884.2 15177.9 3874.8 15179.8 3865.5 15180.1 3865.2 15180.2 3864.8 15185.7 3857 15191.1 3849.1 15191.4 3848.9 15191.7 3848.5 15199.8 3843.6 15207.8 3838.4 15208.3 3838.3 15208.6 3838.1 15218 3836.7 15227.5 3835.1 15227.9 3835.2 15228.3 3835.1 15237.5 3837.5 15246.8 3839.7 15247.1 3840 15247.5 3840.1 15261.1 3849.7 19721.1 8309.7 19721.8 8310.8 19722.8 8311.5 19727.3 8319 19732.1 8326.3 19732.3 8327.5 19733 8328.6 19735.7 8345 19735.7 15507.6 19735.6 15508.4 19735.7 15509.3 19733.6 15518.1 19731.8 15527.1 19731.3 15527.8 19731.1 15528.6 19725.7 15535.9 19720.5 15543.5 19719.8 15543.9 19719.3 15544.6 19711.5 15549.3 19703.8 15554.2 19702.9 15554.3 19702.2 15554.8 19685.8 15557.5 19286.8 15557.5 19197.5 15646.8 19197.5 17373.2 19286.8 17462.5 20713.2 17462.5 20802.5 17373.2 20802.5 15646.8 20713.2 15557.5 20243 15557.5 20242.2 15557.4 20241.3 15557.5 20232.5 15555.4 20223.5 15553.6 20222.8 15553.1 20222 15552.9 20214.7 15547.5 20207.1 15542.3 20206.7 15541.6 20206 15541.1 20201.3 15533.3 20196.4 15525.6 20196.3 15524.7 20195.8 15524 20193.1 15507.6 20193.1 8134.9 16280.7 4222.5 16280.5 4222.1 16280.1 4221.9 16275 4213.9 16269.7 4205.9 16269.6 4205.5 16269.4 4205.2 16267.8 4195.8 16266.1 4186.4 16266.2 4186 16266.1 4185.5 16268.3 4176.4 16270.4 4167 16270.6 4166.6 16270.7 4166.2 16276.3 4158.6 16281.9 4150.7 16282.2 4150.5 16282.5 4150.2 16290.7 4145.3 16298.8 4140.3 16299.2 4140.3 16299.6 4140 16316 4137.3 17829.4 4137.3 17918.7 4048 17918.7 421.6 17836.3 339.3 17836.1 338.9 17835.7 338.7 17830.7 330.7 17825.3 322.7 17825.3 322.3 17825 322 17823.5 312.6 17821.7 303.2 17821.8 302.8 17821.7 302.3 17823.9 293.2 17826 283.8 17826.2 283.4 17826.3 283 17831.9 275.4 17837.5 267.5 17837.9 267.3 17838.1 267 17846.3 262.1 17854.4 257.1 17854.9 257.1 17855.2 256.8 17871.6 254.1 20320 254.1 20321.7 254.4 20323.9 254.2 20673.7 281.8 20677.9 283 20685.2 284 21350.6 500.2 21353.2 501.7 21364.5 507.3 21930.4 918.5 21932.4 920.7 21941.5 929.6 22352.7 1495.5 22353.9 1498.3 22359.8 1509.4 22576 2174.8 22576.5 2179.2 22578.2 2186.3 22605.8 2536.1 22605.6 2537.8 22605.9 2540 22605.9 60960 22605.6 60961.7 22605.8 60963.9 22578.2 61313.7 22577 61317.9 22576 61325.2 22359.8 61990.6 22358.3 61993.2 22352.7 62004.5 21941.5 62570.4 21939.3 62572.4 21930.4 62581.5 21364.5 62992.7 21361.7 62993.9 21350.6 62999.8 20685.2 63216 20680.8 63216.5 20673.7 63218.2 20323.9 63245.8 20322.2 63245.6 20320 63245.9 13607 63245.9 13606.2 63245.8 13605.3 63245.9 13596.5 63243.8 13587.5 63242 13586.8 63241.5 13586 63241.3 13578.7 63235.9 13571.1 63230.7 13570.7 63230 13570 63229.5 13565.3 63221.7 13560.4 63214 13560.3 63213.1 13559.8 63212.4 13557.1 63196 13557.1 61313.9 11353 61313.9 11352.2 61313.7 11351.4 61313.9 11342.5 61311.8 11333.5 61310 11332.8 61309.5 11332 61309.3 11324.7 61303.9 11317.1 61298.7 11316.7 61298 11316 61297.5 11311.4 61289.7 11306.4 61281.9 11306.3 61281.1 11305.9 61280.4 11303.1 61264 11303.1 61213.9 11302.9 61213.9 11302.9 61264 11302.7 61264.8 11302.9 61265.6 11300.8 61274.5 11299 61283.5 11298.5 61284.2 11298.3 61285 11292.9 61292.3 11287.7 61299.9 11287 61300.3 11286.5 61301 11278.7 61305.6 11270.9 61310.6 11270.1 61310.7 11269.4 61311.1 11253 61313.9 9048.9 61313.9 9048.9 63196 9048.8 63196.8 9048.9 63197.7 9046.8 63206.5 9045 63215.5 9044.5 63216.2 9044.3 63217 9038.9 63224.3 9033.7 63231.9 9033 63232.3 9032.5 63233 9024.7 63237.7 9017 63242.6 9016.1 63242.7 9015.4 63243.2 8999 63245.9 2540 63245.9 2538.3 63245.6 2536.1 63245.8 2186.3 63218.2 2182.1 63217 2174.8 63216 1509.4 62999.8 1506.8 62998.3 1495.5 62992.7 929.6 62581.5 927.6 62579.3 918.5 62570.4 507.3 62004.5 506.1 62001.7 500.2 61990.6 284 61325.2 283.5 61320.8 281.8 61313.7 254.2 60963.9 254.4 60962.2 254.1 60960 254.1 2540 254.4 2538.3 254.2 2536.1 281.8 2186.3 283 2182.1 284 2174.8 500.2 1509.4 501.7 1506.8 507.3 1495.5 918.5 929.6 920.7 927.6 929.6 918.5 1495.5 507.3 1498.3 506.1 1509.4 500.2 2174.8 284 2179.2 283.5 2186.3 281.8 2536.1 254.2 2537.8 254.4 2540 254.1 4988.4 254.1 4988.8 254.2"/></g></g></g><use xlink:href="#grhUJlz_NqmwATT0eZcJ_pad-10" x="13160" y="26670"/><use xlink:href="#grhUJlz_NqmwATT0eZcJ_pad-10" x="10160" y="26670"/><use xlink:href="#grhUJlz_NqmwATT0eZcJ_pad-10" x="13160" y="11430"/><use xlink:href="#grhUJlz_NqmwATT0eZcJ_pad-10" x="10160" y="11430"/><use xlink:href="#grhUJlz_NqmwATT0eZcJ_pad-10" x="5540" y="19050"/><use xlink:href="#grhUJlz_NqmwATT0eZcJ_pad-10" x="2540" y="19050"/><use xlink:href="#grhUJlz_NqmwATT0eZcJ_pad-10" x="20780" y="19050"/><use xlink:href="#grhUJlz_NqmwATT0eZcJ_pad-10" x="17780" y="19050"/><use xlink:href="#grhUJlz_NqmwATT0eZcJ_pad-10" x="13160" y="19050"/><use xlink:href="#grhUJlz_NqmwATT0eZcJ_pad-10" x="10160" y="19050"/><use xlink:href="#grhUJlz_NqmwATT0eZcJ_pad-11" x="10734" y="24130"/><use xlink:href="#grhUJlz_NqmwATT0eZcJ_pad-11" x="12634" y="24130"/><use xlink:href="#grhUJlz_NqmwATT0eZcJ_pad-11" x="10480" y="8890"/><use xlink:href="#grhUJlz_NqmwATT0eZcJ_pad-11" x="12380" y="8890"/><use xlink:href="#grhUJlz_NqmwATT0eZcJ_pad-11" x="3495" y="16510"/><use xlink:href="#grhUJlz_NqmwATT0eZcJ_pad-11" x="5395" y="16510"/><use xlink:href="#grhUJlz_NqmwATT0eZcJ_pad-11" x="18100" y="16510"/><use xlink:href="#grhUJlz_NqmwATT0eZcJ_pad-11" x="20000" y="16510"/><use xlink:href="#grhUJlz_NqmwATT0eZcJ_pad-11" x="12634" y="16510"/><use xlink:href="#grhUJlz_NqmwATT0eZcJ_pad-11" x="10734" y="16510"/><use xlink:href="#grhUJlz_NqmwATT0eZcJ_pad-12" x="11303" y="61214"/><use xlink:href="#grhUJlz_NqmwATT0eZcJ_pad-12" x="11303" y="32639"/><use xlink:href="#grhUJlz_NqmwATT0eZcJ_pad-13" x="5943.8" y="2234.8"/><use xlink:href="#grhUJlz_NqmwATT0eZcJ_pad-13" x="8686.6" y="2234.8"/><use xlink:href="#grhUJlz_NqmwATT0eZcJ_pad-13" x="11430" y="2235"/><use xlink:href="#grhUJlz_NqmwATT0eZcJ_pad-13" x="14173.4" y="2234.8"/><use xlink:href="#grhUJlz_NqmwATT0eZcJ_pad-13" x="16916.2" y="2234.8"/><path d="M 12496.8 23622 12496.8 24079.2 M 12496.8 23622 6553.2 17678.4 4724.4 17678.4 4419.6 17373.6 4419.6 3810 5943.6 2286 M 12496.8 24079.2 12634 24130 M 5943.6 2286 5943.8 2234.8 M 12344.4 6096 12344.4 8839.2 M 12344.4 6096 8534.4 2286 M 12344.4 8839.2 12380 8890 M 8686.6 2234.8 8534.4 2286 M 9448.8 12496.8 5486.4 16459.2 M 9448.8 12496.8 10820.4 12496.8 12192 11125.2 12192 10668 12801.6 10058.4 13106.4 10058.4 13258.8 9906 13258.8 4267.2 11430 2438.4 11430 2235 M 5486.4 16459.2 5395 16510 M 19964.4 16459.2 19964.4 8229.6 14325.6 2590.8 14325.6 2286 M 19964.4 16459.2 20000 16510 M 14325.6 2286 14173.4 2234.8" fill="none" stroke-width="152.4"/><use xlink:href="#grhUJlz_NqmwATT0eZcJ_pad-15" x="15240" y="17780"/><path d="M 12496.8 16459.2 9448.8 13411.2 M 12496.8 16459.2 12634 16510" fill="none" stroke-width="152.4"/><use xlink:href="#grhUJlz_NqmwATT0eZcJ_pad-16" x="9448.8" y="13411.2"/><path d="M 17830.8 16764 17830.8 19050 M 17830.8 16764 17983.2 16611.6 M 17830.8 19050 17780 19050 M 17983.2 16611.6 18100 16510 M 10210.8 17068.8 10210.8 19050 M 10210.8 17068.8 10668 16611.6 M 10210.8 19050 10160 19050 M 10668 16611.6 10734 16510 M 10210.8 24688.8 10210.8 26670 M 10210.8 24688.8 10668 24231.6 M 10210.8 26670 10160 26670 M 10668 24231.6 10734 24130 M 10210.8 11430 10210.8 9144 10363.2 8991.6 M 10210.8 11430 10160 11430 M 10363.2 8991.6 10480 8890 M 2590.8 17373.6 2590.8 19050 M 2590.8 17373.6 3352.8 16611.6 M 2590.8 19050 2540 19050 M 3352.8 16611.6 3495 16510 M 13258.8 15240 13258.8 11430 M 13258.8 15240 13563.6 15544.8 13563.6 18745.2 13258.8 19050 M 13258.8 11430 13160 11430 M 13160 19050 13258.8 19050 M 19507.2 19050 20780 19050 M 19507.2 19050 18440.4 20116.8 14935.2 20116.8 13563.6 18745.2 13160 19050 M 5486.4 19050 5486.4 24130 M 5486.4 19050 5540 19050 M 13106.4 26670 13106.4 27736.8 M 13106.4 26670 13160 26670 M 13106.4 27736.8 9093.2 27736.8 M 14935.2 24993.6 14935.2 20116.8 M 14935.2 24993.6 13258.8 26670 13160 26670 M 9093.2 27736.8 5486.4 24130" fill="none" stroke-width="152.4"/><use xlink:href="#grhUJlz_NqmwATT0eZcJ_pad-15" x="11430" y="13208"/><path d="M 11430 13208 13160 11478 13160 11430" fill="none" stroke-width="152.4"/><use xlink:href="#grhUJlz_NqmwATT0eZcJ_pad-15" x="7620" y="29210"/><path d="M 7620 29210 11049 32639 11303 32639" fill="none" stroke-width="152.4"/></g><g id="NT-YIytG-sXDfZJ7eM0S_top_drill1"><use xlink:href="#BUyTxGn8UVGgzMgjH6oc_pad-1" x="15240" y="17780"/><use xlink:href="#BUyTxGn8UVGgzMgjH6oc_pad-1" x="11430" y="13208"/><use xlink:href="#BUyTxGn8UVGgzMgjH6oc_pad-1" x="7620" y="29210"/><use xlink:href="#BUyTxGn8UVGgzMgjH6oc_pad-2" x="9449" y="13411"/></g><clipPath id="NT-YIytG-sXDfZJ7eM0S_top_outline"><path d="M 2540 63500 2478.6 63499.3 2417.3 63497 2356 63493.3 2294.9 63488.1 2233.8 63481.5 2173 63473.3 2112.4 63463.7 2052 63452.7 1991.9 63440.2 1932.1 63426.2 1872.7 63410.8 1813.7 63393.9 1755.1 63375.7 1697 63356 1639.3 63334.9 1582.2 63312.5 1525.6 63288.7 1469.6 63263.5 1414.3 63236.9 1359.6 63209.1 1305.6 63179.9 1252.3 63149.4 1199.8 63117.6 1148 63084.6 1097.1 63050.4 1047 63014.9 997.8 62978.2 949.5 62940.4 902.1 62901.4 855.7 62861.2 810.2 62820 765.8 62777.6 722.4 62734.2 680 62689.8 638.8 62644.3 598.6 62597.9 559.6 62550.5 521.8 62502.2 485.1 62453 449.6 62402.9 415.4 62352 382.4 62300.2 350.6 62247.7 320.1 62194.4 290.9 62140.4 263.1 62085.7 236.5 62030.4 211.3 61974.4 187.5 61917.8 165.1 61860.7 144 61803 124.3 61744.9 106.1 61686.3 89.2 61627.3 73.8 61567.9 59.8 61508.1 47.3 61448 36.3 61387.6 26.7 61327 18.5 61266.2 11.9 61205.1 6.7 61144 3 61082.7 0.7 61021.4 0 60960 0 2540 0.7 2478.6 3 2417.3 6.7 2356 11.9 2294.9 18.5 2233.8 26.7 2173 36.3 2112.4 47.3 2052 59.8 1991.9 73.8 1932.1 89.2 1872.7 106.1 1813.7 124.3 1755.1 144 1697 165.1 1639.3 187.5 1582.2 211.3 1525.6 236.5 1469.6 263.1 1414.3 290.9 1359.6 320.1 1305.6 350.6 1252.3 382.4 1199.8 415.4 1148 449.6 1097.1 485.1 1047 521.8 997.8 559.6 949.5 598.6 902.1 638.8 855.7 680 810.2 722.4 765.8 765.8 722.4 810.2 680 855.7 638.8 902.1 598.6 949.5 559.6 997.8 521.8 1047 485.1 1097.1 449.6 1148 415.4 1199.8 382.4 1252.3 350.6 1305.6 320.1 1359.6 290.9 1414.3 263.1 1469.6 236.5 1525.6 211.3 1582.2 187.5 1639.3 165.1 1697 144 1755.1 124.3 1813.7 106.1 1872.7 89.2 1932.1 73.8 1991.9 59.8 2052 47.3 2112.4 36.3 2173 26.7 2233.8 18.5 2294.9 11.9 2356 6.7 2417.3 3 2478.6 0.7 2540 0 20320 0 20381.4 0.7 20442.7 3 20504 6.7 20565.1 11.9 20626.2 18.5 20687 26.7 20747.6 36.3 20808 47.3 20868.1 59.8 20927.9 73.8 20987.3 89.2 21046.3 106.1 21104.9 124.3 21163 144 21220.7 165.1 21277.8 187.5 21334.4 211.3 21390.4 236.5 21445.7 263.1 21500.4 290.9 21554.4 320.1 21607.7 350.6 21660.2 382.4 21712 415.4 21762.9 449.6 21813 485.1 21862.2 521.8 21910.5 559.6 21957.9 598.6 22004.3 638.8 22049.8 680 22094.2 722.4 22137.6 765.8 22180 810.2 22221.2 855.7 22261.4 902.1 22300.4 949.5 22338.2 997.8 22374.9 1047 22410.4 1097.1 22444.6 1148 22477.6 1199.8 22509.4 1252.3 22539.9 1305.6 22569.1 1359.6 22596.9 1414.3 22623.5 1469.6 22648.7 1525.6 22672.5 1582.2 22694.9 1639.3 22716 1697 22735.7 1755.1 22753.9 1813.7 22770.8 1872.7 22786.2 1932.1 22800.2 1991.9 22812.7 2052 22823.7 2112.4 22833.3 2173 22841.5 2233.8 22848.1 2294.9 22853.3 2356 22857 2417.3 22859.3 2478.6 22860 2540 22860 60960 22859.3 61021.4 22857 61082.7 22853.3 61144 22848.1 61205.1 22841.5 61266.2 22833.3 61327 22823.7 61387.6 22812.7 61448 22800.2 61508.1 22786.2 61567.9 22770.8 61627.3 22753.9 61686.3 22735.7 61744.9 22716 61803 22694.9 61860.7 22672.5 61917.8 22648.7 61974.4 22623.5 62030.4 22596.9 62085.7 22569.1 62140.4 22539.9 62194.4 22509.4 62247.7 22477.6 62300.2 22444.6 62352 22410.4 62402.9 22374.9 62453 22338.2 62502.2 22300.4 62550.5 22261.4 62597.9 22221.2 62644.3 22180 62689.8 22137.6 62734.2 22094.2 62777.6 22049.8 62820 22004.3 62861.2 21957.9 62901.4 21910.5 62940.4 21862.2 62978.2 21813 63014.9 21762.9 63050.4 21712 63084.6 21660.2 63117.6 21607.7 63149.4 21554.4 63179.9 21500.4 63209.1 21445.7 63236.9 21390.4 63263.5 21334.4 63288.7 21277.8 63312.5 21220.7 63334.9 21163 63356 21104.9 63375.7 21046.3 63393.9 20987.3 63410.8 20927.9 63426.2 20868.1 63440.2 20808 63452.7 20747.6 63463.7 20687 63473.3 20626.2 63481.5 20565.1 63488.1 20504 63493.3 20442.7 63497 20381.4 63499.3 20320 63500 2540 63500 2318.6 63490.3 2098.9 63461.4 1882.6 63413.5 1671.3 63346.8 1466.6 63262 1270 63159.7 1083.1 63040.6 907.3 62905.8 744 62756.1 594.2 62592.7 459.4 62416.9 340.3 62230 238 62033.5 153.2 61828.7 86.5 61617.4 38.6 61401.1 9.7 61181.4 0 60960 M 20541.4 63490.3 20320 63500 M 22860 60960 22850.3 61181.4 22821.4 61401.1 22773.5 61617.4 22706.8 61828.7 22622 62033.5 22519.7 62230 22400.6 62416.9 22265.8 62592.7 22116.1 62756.1 21952.7 62905.8 21776.9 63040.6 21590 63159.7 21393.5 63262 21188.7 63346.8 20977.4 63413.5 20761.1 63461.4 20541.4 63490.3 M 22850.3 2318.6 22860 2540 M 20320 0 20541.4 9.7 20761.1 38.6 20977.4 86.5 21188.7 153.2 21393.5 238 21590 340.3 21776.9 459.4 21952.7 594.2 22116.1 744 22265.8 907.3 22400.6 1083.1 22519.7 1270 22622 1466.6 22706.8 1671.3 22773.5 1882.6 22821.4 2098.9 22850.3 2318.6 M 2318.6 9.7 2540 0 M 0 2540 9.7 2318.6 38.6 2098.9 86.5 1882.6 153.2 1671.3 238 1466.6 340.3 1270 459.4 1083.1 594.2 907.3 744 744 907.3 594.2 1083.1 459.4 1270 340.3 1466.6 238 1671.3 153.2 1882.6 86.5 2098.9 38.6 2318.6 9.7" fill="none" stroke-width="0"/></clipPath><mask id="NT-YIytG-sXDfZJ7eM0S_top_mech-mask"><g fill="#000" stroke="#000"><rect x="0" y="0" width="22860" height="63500" fill="#fff"/><use xlink:href="#NT-YIytG-sXDfZJ7eM0S_top_drill1"/></g></mask><mask id="NT-YIytG-sXDfZJ7eM0S_top_cf-mask"><g fill="#fff" stroke="#fff"><use xlink:href="#NT-YIytG-sXDfZJ7eM0S_top_soldermask"/></g></mask><mask id="NT-YIytG-sXDfZJ7eM0S_top_sm-mask"><g fill="#000" stroke="#000"><rect x="0" y="0" width="22860" height="63500" fill="#fff"/><use xlink:href="#NT-YIytG-sXDfZJ7eM0S_top_soldermask"/></g></mask></defs><g transform="translate(0,63500) scale(1,-1)"><g mask="url(#NT-YIytG-sXDfZJ7eM0S_top_mech-mask)" clip-path="url(#NT-YIytG-sXDfZJ7eM0S_top_outline)"><rect x="0" y="0" width="22860" height="63500" fill="currentColor" class="NT-YIytG-sXDfZJ7eM0S_fr4"/><use xlink:href="#NT-YIytG-sXDfZJ7eM0S_top_copper" fill="currentColor" stroke="currentColor" class="NT-YIytG-sXDfZJ7eM0S_cu"/><use xlink:href="#NT-YIytG-sXDfZJ7eM0S_top_copper" fill="currentColor" stroke="currentColor" class="NT-YIytG-sXDfZJ7eM0S_cf" mask="url(#NT-YIytG-sXDfZJ7eM0S_top_cf-mask)"/><g mask="url(#NT-YIytG-sXDfZJ7eM0S_top_sm-mask)"><rect x="0" y="0" width="22860" height="63500" fill="currentColor" class="NT-YIytG-sXDfZJ7eM0S_sm"/><use xlink:href="#NT-YIytG-sXDfZJ7eM0S_top_silkscreen" fill="currentColor" stroke="currentColor" class="NT-YIytG-sXDfZJ7eM0S_ss"/></g><use xlink:href="#NT-YIytG-sXDfZJ7eM0S_top_solderpaste" fill="currentColor" stroke="currentColor" class="NT-YIytG-sXDfZJ7eM0S_sp"/></g></g></svg>